<svg width="200" height="61" viewBox="0 0 200 61" fill="none" xmlns="http://www.w3.org/2000/svg">
<path d="M0 30.137C0 20.8181 0 16.1587 1.52241 12.4833C3.55229 7.58273 7.44577 3.68925 12.3463 1.65937C16.0218 0.136963 20.6812 0.136963 30 0.136963H170C179.319 0.136963 183.978 0.136963 187.654 1.65937C192.554 3.68925 196.448 7.58273 198.478 12.4833C200 16.1587 200 20.8181 200 30.137C200 39.4558 200 44.1152 198.478 47.7906C196.448 52.6912 192.554 56.5847 187.654 58.6146C183.978 60.137 179.319 60.137 170 60.137H30C20.6812 60.137 16.0218 60.137 12.3463 58.6146C7.44577 56.5847 3.55229 52.6912 1.52241 47.7906C0 44.1152 0 39.4558 0 30.137Z" fill="#575757"/>
<path d="M60.8184 30.932C60.8308 29.9738 61.0853 29.0342 61.5583 28.2008C62.0314 27.3673 62.7075 26.6671 63.5239 26.1652C63.0053 25.4245 62.3211 24.815 61.5257 24.385C60.7303 23.955 59.8456 23.7163 58.9418 23.6881C57.014 23.4857 55.145 24.8417 54.1626 24.8417C53.1612 24.8417 51.6486 23.7082 50.0198 23.7417C48.9663 23.7757 47.9395 24.0821 47.0396 24.6309C46.1397 25.1797 45.3973 25.9523 44.8847 26.8734C42.6643 30.7176 44.3205 36.3672 46.4474 39.4746C47.5116 40.9961 48.7552 42.6958 50.3825 42.6355C51.9749 42.5694 52.5697 41.6201 54.4919 41.6201C56.3962 41.6201 56.9542 42.6355 58.6145 42.5972C60.3233 42.5694 61.3999 41.0688 62.4267 39.5329C63.1912 38.4487 63.7796 37.2504 64.1699 35.9825C63.1772 35.5626 62.33 34.8598 61.734 33.9617C61.138 33.0636 60.8196 32.0099 60.8184 30.932Z" fill="white"/>
<path d="M57.6823 21.6444C58.614 20.5259 59.073 19.0884 58.9618 17.637C57.5384 17.7865 56.2236 18.4668 55.2794 19.5423C54.8177 20.0677 54.4641 20.679 54.2388 21.3411C54.0135 22.0033 53.9209 22.7034 53.9663 23.4013C54.6783 23.4087 55.3826 23.2544 56.0263 22.95C56.6699 22.6457 57.2362 22.1993 57.6823 21.6444Z" fill="white"/>
<path d="M81.2641 25.245C80.3361 25.245 79.5601 25.073 78.9361 24.729C78.3121 24.385 77.8441 23.889 77.5321 23.241C77.2201 22.593 77.0641 21.817 77.0641 20.913C77.0641 20.017 77.2281 19.245 77.5561 18.597C77.8841 17.949 78.3561 17.449 78.9721 17.097C79.5881 16.745 80.3321 16.569 81.2041 16.569C81.8201 16.569 82.3521 16.661 82.8001 16.845C83.2561 17.021 83.6641 17.285 84.0241 17.637L83.6521 18.417C83.3881 18.185 83.1321 18.001 82.8841 17.865C82.6441 17.729 82.3921 17.629 82.1281 17.565C81.8641 17.493 81.5561 17.457 81.2041 17.457C80.2041 17.457 79.4361 17.761 78.9001 18.369C78.3721 18.969 78.1081 19.821 78.1081 20.925C78.1081 22.037 78.3641 22.889 78.8761 23.481C79.3961 24.073 80.2001 24.369 81.2881 24.369C81.6881 24.369 82.0681 24.333 82.4281 24.261C82.7961 24.181 83.1521 24.069 83.4961 23.925L83.2801 24.465V21.489H81.1201V20.709H84.1321V24.633C83.7881 24.817 83.3521 24.965 82.8241 25.077C82.3041 25.189 81.7841 25.245 81.2641 25.245ZM88.7214 25.245C87.7774 25.245 87.0334 24.973 86.4894 24.429C85.9454 23.877 85.6734 23.113 85.6734 22.137C85.6734 21.505 85.7934 20.957 86.0334 20.493C86.2734 20.021 86.6094 19.657 87.0414 19.401C87.4734 19.137 87.9694 19.005 88.5294 19.005C89.0814 19.005 89.5454 19.121 89.9214 19.353C90.2974 19.585 90.5854 19.917 90.7854 20.349C90.9854 20.773 91.0854 21.277 91.0854 21.861V22.221H86.4174V21.609H90.4494L90.2454 21.765C90.2454 21.125 90.1014 20.625 89.8134 20.265C89.5254 19.905 89.0974 19.725 88.5294 19.725C87.9294 19.725 87.4614 19.937 87.1254 20.361C86.7894 20.777 86.6214 21.341 86.6214 22.053V22.161C86.6214 22.913 86.8054 23.485 87.1734 23.877C87.5494 24.261 88.0734 24.453 88.7454 24.453C89.1054 24.453 89.4414 24.401 89.7534 24.297C90.0734 24.185 90.3774 24.005 90.6654 23.757L91.0014 24.441C90.7374 24.697 90.4014 24.897 89.9934 25.041C89.5934 25.177 89.1694 25.245 88.7214 25.245ZM94.7088 25.245C94.1168 25.245 93.6648 25.077 93.3528 24.741C93.0408 24.397 92.8848 23.881 92.8848 23.193V19.869H91.7088V19.113H92.8848V17.469L93.8568 17.193V19.113H95.5848V19.869H93.8568V23.085C93.8568 23.565 93.9368 23.909 94.0968 24.117C94.2648 24.317 94.5128 24.417 94.8408 24.417C94.9928 24.417 95.1288 24.405 95.2488 24.381C95.3688 24.349 95.4768 24.313 95.5728 24.273V25.089C95.4608 25.137 95.3248 25.173 95.1648 25.197C95.0128 25.229 94.8608 25.245 94.7088 25.245ZM99.897 25.137V19.113H100.869V25.137H99.897ZM99.777 17.745V16.653H100.977V17.745H99.777ZM104.892 25.245C104.3 25.245 103.848 25.077 103.536 24.741C103.224 24.397 103.068 23.881 103.068 23.193V19.869H101.892V19.113H103.068V17.469L104.04 17.193V19.113H105.768V19.869H104.04V23.085C104.04 23.565 104.12 23.909 104.28 24.117C104.448 24.317 104.696 24.417 105.024 24.417C105.176 24.417 105.312 24.405 105.432 24.381C105.552 24.349 105.66 24.313 105.756 24.273V25.089C105.644 25.137 105.508 25.173 105.348 25.197C105.196 25.229 105.044 25.245 104.892 25.245ZM112.553 25.245C111.977 25.245 111.473 25.121 111.041 24.873C110.617 24.617 110.289 24.257 110.057 23.793C109.825 23.321 109.709 22.765 109.709 22.125C109.709 21.477 109.825 20.921 110.057 20.457C110.289 19.993 110.617 19.637 111.041 19.389C111.473 19.133 111.977 19.005 112.553 19.005C113.137 19.005 113.641 19.133 114.065 19.389C114.497 19.637 114.829 19.993 115.061 20.457C115.301 20.921 115.421 21.477 115.421 22.125C115.421 22.765 115.301 23.321 115.061 23.793C114.829 24.257 114.497 24.617 114.065 24.873C113.641 25.121 113.137 25.245 112.553 25.245ZM112.553 24.453C113.129 24.453 113.585 24.257 113.921 23.865C114.257 23.465 114.425 22.885 114.425 22.125C114.425 21.357 114.253 20.777 113.909 20.385C113.573 19.985 113.121 19.785 112.553 19.785C111.985 19.785 111.533 19.985 111.197 20.385C110.861 20.777 110.693 21.357 110.693 22.125C110.693 22.885 110.861 23.465 111.197 23.865C111.533 24.257 111.985 24.453 112.553 24.453ZM116.936 25.137V20.505C116.936 20.281 116.924 20.053 116.9 19.821C116.884 19.581 116.864 19.345 116.84 19.113H117.776L117.896 20.433H117.752C117.928 19.969 118.208 19.617 118.592 19.377C118.984 19.129 119.436 19.005 119.948 19.005C120.66 19.005 121.196 19.197 121.556 19.581C121.924 19.957 122.108 20.553 122.108 21.369V25.137H121.136V21.429C121.136 20.861 121.02 20.449 120.788 20.193C120.564 19.929 120.212 19.797 119.732 19.797C119.172 19.797 118.728 19.969 118.4 20.313C118.072 20.657 117.908 21.117 117.908 21.693V25.137H116.936Z" fill="white"/>
<path d="M84.3951 41.009H79.9471L79.2111 43.137H76.8591L80.8751 31.953H83.4831L87.4991 43.137H85.1311L84.3951 41.009ZM83.7871 39.217L82.1711 34.545L80.5551 39.217H83.7871ZM91.2402 35.553C91.5282 35.1476 91.9229 34.8116 92.4242 34.545C92.9362 34.2676 93.5176 34.129 94.1682 34.129C94.9256 34.129 95.6082 34.3156 96.2162 34.689C96.8349 35.0623 97.3202 35.5956 97.6722 36.289C98.0349 36.9716 98.2162 37.7663 98.2162 38.673C98.2162 39.5796 98.0349 40.385 97.6722 41.089C97.3202 41.7823 96.8349 42.321 96.2162 42.705C95.6082 43.089 94.9256 43.281 94.1682 43.281C93.5176 43.281 92.9416 43.1476 92.4402 42.881C91.9496 42.6143 91.5496 42.2783 91.2402 41.873V47.361H89.0002V34.273H91.2402V35.553ZM95.9282 38.673C95.9282 38.1396 95.8162 37.681 95.5922 37.297C95.3789 36.9023 95.0909 36.6036 94.7282 36.401C94.3762 36.1983 93.9922 36.097 93.5762 36.097C93.1709 36.097 92.7869 36.2036 92.4242 36.417C92.0722 36.6196 91.7842 36.9183 91.5602 37.313C91.3469 37.7076 91.2402 38.1716 91.2402 38.705C91.2402 39.2383 91.3469 39.7023 91.5602 40.097C91.7842 40.4916 92.0722 40.7956 92.4242 41.009C92.7869 41.2116 93.1709 41.313 93.5762 41.313C93.9922 41.313 94.3762 41.2063 94.7282 40.993C95.0909 40.7796 95.3789 40.4756 95.5922 40.081C95.8162 39.6863 95.9282 39.217 95.9282 38.673ZM102.084 35.553C102.372 35.1476 102.767 34.8116 103.268 34.545C103.78 34.2676 104.361 34.129 105.012 34.129C105.769 34.129 106.452 34.3156 107.06 34.689C107.679 35.0623 108.164 35.5956 108.516 36.289C108.879 36.9716 109.06 37.7663 109.06 38.673C109.06 39.5796 108.879 40.385 108.516 41.089C108.164 41.7823 107.679 42.321 107.06 42.705C106.452 43.089 105.769 43.281 105.012 43.281C104.361 43.281 103.785 43.1476 103.284 42.881C102.793 42.6143 102.393 42.2783 102.084 41.873V47.361H99.844V34.273H102.084V35.553ZM106.772 38.673C106.772 38.1396 106.66 37.681 106.436 37.297C106.223 36.9023 105.935 36.6036 105.572 36.401C105.22 36.1983 104.836 36.097 104.42 36.097C104.015 36.097 103.631 36.2036 103.268 36.417C102.916 36.6196 102.628 36.9183 102.404 37.313C102.191 37.7076 102.084 38.1716 102.084 38.705C102.084 39.2383 102.191 39.7023 102.404 40.097C102.628 40.4916 102.916 40.7956 103.268 41.009C103.631 41.2116 104.015 41.313 104.42 41.313C104.836 41.313 105.22 41.2063 105.572 40.993C105.935 40.7796 106.223 40.4756 106.436 40.081C106.66 39.6863 106.772 39.217 106.772 38.673ZM118.356 43.249C117.578 43.249 116.874 43.1156 116.244 42.849C115.626 42.5823 115.135 42.1983 114.772 41.697C114.41 41.1956 114.223 40.6036 114.212 39.921H116.612C116.644 40.3796 116.804 40.7423 117.092 41.009C117.391 41.2756 117.796 41.409 118.308 41.409C118.831 41.409 119.242 41.2863 119.54 41.041C119.839 40.785 119.988 40.4543 119.988 40.049C119.988 39.7183 119.887 39.4463 119.684 39.233C119.482 39.0196 119.226 38.8543 118.916 38.737C118.618 38.609 118.202 38.4703 117.668 38.321C116.943 38.1076 116.351 37.8996 115.892 37.697C115.444 37.4836 115.055 37.169 114.724 36.753C114.404 36.3263 114.244 35.761 114.244 35.057C114.244 34.3956 114.41 33.8196 114.74 33.329C115.071 32.8383 115.535 32.465 116.132 32.209C116.73 31.9423 117.412 31.809 118.18 31.809C119.332 31.809 120.266 32.0916 120.98 32.657C121.706 33.2116 122.106 33.9903 122.18 34.993H119.716C119.695 34.609 119.53 34.2943 119.22 34.049C118.922 33.793 118.522 33.665 118.02 33.665C117.583 33.665 117.231 33.777 116.964 34.001C116.708 34.225 116.58 34.5503 116.58 34.977C116.58 35.2756 116.676 35.5263 116.868 35.729C117.071 35.921 117.316 36.081 117.604 36.209C117.903 36.3263 118.319 36.465 118.852 36.625C119.578 36.8383 120.17 37.0516 120.628 37.265C121.087 37.4783 121.482 37.7983 121.812 38.225C122.143 38.6516 122.308 39.2116 122.308 39.905C122.308 40.5023 122.154 41.057 121.844 41.569C121.535 42.081 121.082 42.4916 120.484 42.801C119.887 43.0996 119.178 43.249 118.356 43.249ZM126.858 36.113V40.401C126.858 40.6996 126.928 40.9183 127.066 41.057C127.216 41.185 127.461 41.249 127.802 41.249H128.842V43.137H127.434C125.546 43.137 124.602 42.2196 124.602 40.385V36.113H123.546V34.273H124.602V32.081H126.858V34.273H128.842V36.113H126.858ZM134.389 43.281C133.536 43.281 132.768 43.0943 132.085 42.721C131.403 42.337 130.864 41.7983 130.469 41.105C130.085 40.4116 129.893 39.6116 129.893 38.705C129.893 37.7983 130.091 36.9983 130.485 36.305C130.891 35.6116 131.44 35.0783 132.133 34.705C132.827 34.321 133.6 34.129 134.453 34.129C135.307 34.129 136.08 34.321 136.773 34.705C137.467 35.0783 138.011 35.6116 138.405 36.305C138.811 36.9983 139.013 37.7983 139.013 38.705C139.013 39.6116 138.805 40.4116 138.389 41.105C137.984 41.7983 137.429 42.337 136.725 42.721C136.032 43.0943 135.253 43.281 134.389 43.281ZM134.389 41.329C134.795 41.329 135.173 41.233 135.525 41.041C135.888 40.8383 136.176 40.5396 136.389 40.145C136.603 39.7503 136.709 39.2703 136.709 38.705C136.709 37.8623 136.485 37.217 136.037 36.769C135.6 36.3103 135.061 36.081 134.421 36.081C133.781 36.081 133.243 36.3103 132.805 36.769C132.379 37.217 132.165 37.8623 132.165 38.705C132.165 39.5476 132.373 40.1983 132.789 40.657C133.216 41.105 133.749 41.329 134.389 41.329ZM142.896 35.649C143.184 35.1796 143.558 34.8116 144.016 34.545C144.486 34.2783 145.019 34.145 145.616 34.145V36.497H145.024C144.32 36.497 143.787 36.6623 143.424 36.993C143.072 37.3236 142.896 37.8996 142.896 38.721V43.137H140.656V34.273H142.896V35.649ZM155.365 38.513C155.365 38.833 155.344 39.121 155.301 39.377H148.821C148.875 40.017 149.099 40.5183 149.493 40.881C149.888 41.2436 150.373 41.425 150.949 41.425C151.781 41.425 152.373 41.0676 152.725 40.353H155.141C154.885 41.2063 154.395 41.9103 153.669 42.465C152.944 43.009 152.053 43.281 150.997 43.281C150.144 43.281 149.376 43.0943 148.693 42.721C148.021 42.337 147.493 41.7983 147.109 41.105C146.736 40.4116 146.549 39.6116 146.549 38.705C146.549 37.7876 146.736 36.9823 147.109 36.289C147.483 35.5956 148.005 35.0623 148.677 34.689C149.349 34.3156 150.123 34.129 150.997 34.129C151.84 34.129 152.592 34.3103 153.253 34.673C153.925 35.0356 154.443 35.553 154.805 36.225C155.179 36.8863 155.365 37.649 155.365 38.513ZM153.045 37.873C153.035 37.297 152.827 36.8383 152.421 36.497C152.016 36.145 151.52 35.969 150.933 35.969C150.379 35.969 149.909 36.1396 149.525 36.481C149.152 36.8116 148.923 37.2756 148.837 37.873H153.045Z" fill="white"/>
</svg>
