<svg width="60" height="60" viewBox="0 0 60 60" fill="none" xmlns="http://www.w3.org/2000/svg">
<path opacity="0.2" d="M26 32.5C28.7614 32.5 31 30.2614 31 27.5C31 24.7386 28.7614 22.5 26 22.5C23.2386 22.5 21 24.7386 21 27.5C21 30.2614 23.2386 32.5 26 32.5Z" fill="white"/>
<path d="M26 32.5C28.7614 32.5 31 30.2614 31 27.5C31 24.7386 28.7614 22.5 26 22.5C23.2386 22.5 21 24.7386 21 27.5C21 30.2614 23.2386 32.5 26 32.5Z" stroke="#009379" stroke-width="2" stroke-miterlimit="10"/>
<path d="M18.4219 36.875C19.1898 35.5446 20.2944 34.4398 21.6247 33.6717C22.9549 32.9036 24.4639 32.4993 26 32.4993C27.5361 32.4993 29.0451 32.9036 30.3753 33.6717C31.7056 34.4398 32.8102 35.5446 33.5781 36.875" stroke="#009379" stroke-width="2" stroke-linecap="round" stroke-linejoin="round"/>
</svg>
