<svg width="60" height="60" viewBox="0 0 60 60" fill="none" xmlns="http://www.w3.org/2000/svg">
<path opacity="0.4" d="M26 25.3667V28.1417" stroke="#009379" stroke-width="2" stroke-miterlimit="10" stroke-linecap="round"/>
<path d="M26.0166 21.6666C22.9499 21.6666 20.4666 24.15 20.4666 27.2166V28.9666C20.4666 29.5333 20.2332 30.3833 19.9416 30.8666L18.8832 32.6333C18.2332 33.725 18.6832 34.9416 19.8832 35.3416C23.8666 36.6666 28.1749 36.6666 32.1582 35.3416C33.2832 34.9666 33.7666 33.65 33.1582 32.6333L32.0999 30.8666C31.8082 30.3833 31.5749 29.525 31.5749 28.9666V27.2166C31.5666 24.1666 29.0666 21.6666 26.0166 21.6666Z" stroke="#009379" stroke-width="2" stroke-miterlimit="10" stroke-linecap="round"/>
<path opacity="0.4" d="M28.7751 35.6833C28.7751 37.2083 27.5251 38.4583 26.0001 38.4583C25.2418 38.4583 24.5418 38.1417 24.0418 37.6417C23.5418 37.1417 23.2251 36.4417 23.2251 35.6833" stroke="#009379" stroke-width="2" stroke-miterlimit="10"/>
</svg>
