<svg width="52" height="53" viewBox="0 0 52 53" fill="none" xmlns="http://www.w3.org/2000/svg">
<path d="M0 26.5375C0 20.9594 0 18.1703 0.552601 15.8686C2.30829 8.55559 8.01812 2.84577 15.3311 1.09008C17.6328 0.537476 20.4219 0.537476 26 0.537476C31.5781 0.537476 34.3672 0.537476 36.6689 1.09008C43.9819 2.84577 49.6917 8.55559 51.4474 15.8686C52 18.1703 52 20.9594 52 26.5375C52 32.1156 52 34.9046 51.4474 37.2064C49.6917 44.5194 43.9819 50.2292 36.6689 51.9849C34.3672 52.5375 31.5781 52.5375 26 52.5375C20.4219 52.5375 17.6328 52.5375 15.3311 51.9849C8.01812 50.2292 2.30829 44.5194 0.552601 37.2064C0 34.9046 0 32.1156 0 26.5375Z" fill="#E5F4F2"/>
<path opacity="0.2" d="M20.9517 33.2734C21.4473 34.6865 22.2506 35.9718 23.3036 37.0365C24.3565 38.1013 25.6328 38.9189 27.0403 39.4302C28.4478 39.9415 29.9513 40.1338 31.4421 39.9932C32.933 39.8526 34.374 39.3826 35.661 38.6171L39.1626 39.6156C39.3069 39.6561 39.4593 39.6575 39.6043 39.6196C39.7493 39.5817 39.8816 39.5059 39.9876 39.3999C40.0936 39.294 40.1694 39.1617 40.2073 39.0167C40.2452 38.8717 40.2438 38.7192 40.2032 38.575L39.2048 35.0734C40.0962 33.5772 40.5859 31.876 40.6266 30.1349C40.6674 28.3937 40.2576 26.6716 39.4372 25.1353C38.6167 23.5991 37.4133 22.3008 35.9436 21.3663C34.4739 20.4318 32.7878 19.8928 31.0485 19.8015C31.4342 20.8799 31.6293 22.0172 31.6251 23.1625C31.6251 25.8478 30.5584 28.4231 28.6596 30.3219C26.7607 32.2207 24.1854 33.2875 21.5001 33.2875L20.9517 33.2734Z" fill="#009379"/>
<path d="M12.7952 28.3234C11.5343 26.1991 11.0924 23.6875 11.5523 21.2603C12.0123 18.8332 13.3426 16.6575 15.2934 15.1418C17.2441 13.6262 19.6811 12.8749 22.1467 13.029C24.6122 13.1831 26.9367 14.2321 28.6835 15.9789C30.4303 17.7257 31.4793 20.0501 31.6334 22.5157C31.7875 24.9812 31.0362 27.4182 29.5206 29.369C28.0049 31.3197 25.8292 32.65 23.402 33.11C20.9749 33.57 18.4633 33.1281 16.339 31.8672L12.8374 32.8656C12.6931 32.9062 12.5407 32.9076 12.3957 32.8697C12.2507 32.8318 12.1184 32.7559 12.0124 32.65C11.9064 32.544 11.8306 32.4117 11.7927 32.2667C11.7548 32.1217 11.7562 31.9692 11.7968 31.825L12.7952 28.3234Z" stroke="#009379" stroke-width="2" stroke-linecap="round" stroke-linejoin="round"/>
<path d="M20.9517 33.2734C21.4473 34.6865 22.2506 35.9718 23.3036 37.0365C24.3565 38.1013 25.6328 38.9189 27.0403 39.4302C28.4478 39.9415 29.9513 40.1338 31.4421 39.9932C32.933 39.8526 34.374 39.3826 35.661 38.6171V38.6171L39.1626 39.6156C39.3069 39.6561 39.4593 39.6575 39.6043 39.6196C39.7493 39.5817 39.8816 39.5059 39.9876 39.3999C40.0936 39.294 40.1694 39.1617 40.2073 39.0167C40.2452 38.8717 40.2438 38.7192 40.2032 38.575L39.2048 35.0734C40.0962 33.5772 40.5859 31.876 40.6266 30.1349C40.6674 28.3937 40.2576 26.6716 39.4372 25.1353C38.6167 23.5991 37.4133 22.3008 35.9436 21.3663C34.4739 20.4318 32.7878 19.8928 31.0485 19.8015" stroke="#009379" stroke-width="2" stroke-linecap="round" stroke-linejoin="round"/>
</svg>
