<svg width="72" height="72" viewBox="0 0 72 72" fill="none" xmlns="http://www.w3.org/2000/svg">
<g clip-path="url(#clip0_123_2)">
<path d="M0 36C0 21.0011 0 13.5016 3.81966 8.2443C5.05325 6.5464 6.5464 5.05325 8.2443 3.81966C13.5016 0 21.0011 0 36 0C50.9989 0 58.4984 0 63.7557 3.81966C65.4536 5.05325 66.9467 6.5464 68.1803 8.2443C72 13.5016 72 21.0011 72 36C72 50.9989 72 58.4984 68.1803 63.7557C66.9467 65.4536 65.4536 66.9467 63.7557 68.1803C58.4984 72 50.9989 72 36 72C21.0011 72 13.5016 72 8.2443 68.1803C6.5464 66.9467 5.05325 65.4536 3.81966 63.7557C0 58.4984 0 50.9989 0 36Z" fill="#FF6250" fill-opacity="0.2"/>
<path opacity="0.2" d="M31.5125 42.0126C31.953 43.2687 32.6671 44.4112 33.603 45.3576C34.539 46.3041 35.6735 47.0308 36.9246 47.4853C38.1757 47.9398 39.512 48.1107 40.8372 47.9858C42.1624 47.8608 43.4434 47.443 44.5875 46.7626L47.7 47.6501C47.8282 47.6862 47.9637 47.6874 48.0926 47.6537C48.2215 47.62 48.3391 47.5526 48.4333 47.4584C48.5275 47.3642 48.5949 47.2466 48.6286 47.1178C48.6623 46.9889 48.661 46.8533 48.625 46.7251L47.7374 43.6126C48.5298 42.2826 48.9651 40.7705 49.0013 39.2228C49.0375 37.6751 48.6733 36.1443 47.944 34.7788C47.2147 33.4132 46.145 32.2592 44.8386 31.4285C43.5322 30.5979 42.0333 30.1188 40.4874 30.0376C40.8302 30.9962 41.0037 32.0071 41 33.0251C41 35.412 40.0516 37.7012 38.3638 39.3891C36.676 41.0769 34.3869 42.0251 32 42.0251L31.5125 42.0126Z" fill="#009379"/>
<path d="M24.2624 37.6126C23.1416 35.7243 22.7488 33.4918 23.1576 31.3343C23.5665 29.1768 24.749 27.2429 26.483 25.8956C28.217 24.5484 30.3832 23.8805 32.5748 24.0176C34.7664 24.1546 36.8326 25.087 38.3853 26.6397C39.938 28.1924 40.8705 30.2586 41.0075 32.4502C41.1445 34.6418 40.4766 36.808 39.1294 38.542C37.7821 40.276 35.8482 41.4585 33.6907 41.8674C31.5332 42.2763 29.3007 41.8834 27.4124 40.7626L24.2999 41.6501C24.1717 41.6862 24.0361 41.6874 23.9073 41.6537C23.7784 41.62 23.6608 41.5526 23.5666 41.4584C23.4724 41.3642 23.405 41.2466 23.3713 41.1178C23.3376 40.9889 23.3389 40.8533 23.3749 40.7251L24.2624 37.6126Z" stroke="#009379" stroke-width="2" stroke-linecap="round" stroke-linejoin="round"/>
<path d="M31.5125 42.0126C31.953 43.2687 32.6671 44.4112 33.603 45.3576C34.539 46.3041 35.6735 47.0308 36.9246 47.4853C38.1757 47.9398 39.512 48.1107 40.8372 47.9858C42.1624 47.8608 43.4434 47.443 44.5875 46.7626L47.7 47.6501C47.8282 47.6862 47.9637 47.6874 48.0926 47.6537C48.2215 47.62 48.3391 47.5526 48.4333 47.4584C48.5275 47.3642 48.5949 47.2466 48.6286 47.1178C48.6623 46.9889 48.661 46.8533 48.625 46.7251L47.7374 43.6126C48.5298 42.2826 48.9651 40.7705 49.0013 39.2228C49.0375 37.6751 48.6733 36.1443 47.944 34.7788C47.2147 33.4132 46.145 32.2592 44.8386 31.4285C43.5322 30.5979 42.0333 30.1188 40.4874 30.0376" stroke="#009379" stroke-width="2" stroke-linecap="round" stroke-linejoin="round"/>
</g>
<defs>
<clipPath id="clip0_123_2">
<rect width="72" height="72" fill="white"/>
</clipPath>
</defs>
</svg>
