<svg width="32" height="32" viewBox="0 0 32 32" fill="none" xmlns="http://www.w3.org/2000/svg">
<path opacity="0.2" d="M12.8 24.8L7.19996 19.2L4.73746 25.9875C4.66938 26.1656 4.65431 26.3596 4.69409 26.5461C4.73386 26.7326 4.82677 26.9035 4.9616 27.0384C5.09642 27.1732 5.2674 27.2661 5.45387 27.3059C5.64035 27.3457 5.83435 27.3306 6.01246 27.2625L12.8 24.8Z" fill="#009379"/>
<path opacity="0.2" d="M9.6001 12.6L19.4001 22.4L24.5251 20.5375C24.6835 20.4799 24.8248 20.3833 24.9358 20.2565C25.0469 20.1297 25.1241 19.9768 25.1602 19.8122C25.1964 19.6476 25.1904 19.4765 25.1427 19.3148C25.095 19.1532 25.0073 19.0062 24.8876 18.8875L13.1126 7.1125C12.9939 6.99281 12.8469 6.90505 12.6853 6.85738C12.5236 6.80972 12.3525 6.80369 12.1879 6.83985C12.0233 6.87602 11.8704 6.95321 11.7436 7.06425C11.6168 7.17529 11.5202 7.31659 11.4626 7.475L9.6001 12.6Z" fill="#009379"/>
<path d="M4.73746 25.9875L11.4625 7.475C11.52 7.31659 11.6167 7.17529 11.7435 7.06425C11.8703 6.95321 12.0231 6.87602 12.1877 6.83985C12.3524 6.80369 12.5235 6.80972 12.6851 6.85738C12.8468 6.90505 12.9938 6.99281 13.1125 7.1125L24.8875 18.8875C25.0072 19.0062 25.0949 19.1532 25.1426 19.3148C25.1902 19.4765 25.1963 19.6476 25.1601 19.8122C25.1239 19.9768 25.0467 20.1297 24.9357 20.2565C24.8247 20.3833 24.6834 20.4799 24.525 20.5375L6.01246 27.2625C5.83435 27.3306 5.64035 27.3456 5.45387 27.3059C5.2674 27.2661 5.09642 27.1732 4.9616 27.0384C4.82677 26.9035 4.73386 26.7326 4.69409 26.5461C4.65431 26.3596 4.66938 26.1656 4.73746 25.9875V25.9875Z" stroke="#009379" stroke-width="2" stroke-linecap="round" stroke-linejoin="round"/>
<path d="M21 9C21 9 21 6 24 6C27 6 27 3 27 3" stroke="#009379" stroke-width="2" stroke-linecap="round" stroke-linejoin="round"/>
<path d="M12.8 24.8L7.19995 19.2" stroke="#009379" stroke-width="2" stroke-linecap="round" stroke-linejoin="round"/>
<path d="M18 2V5" stroke="#009379" stroke-width="2" stroke-linecap="round" stroke-linejoin="round"/>
<path d="M27 14L29 16" stroke="#009379" stroke-width="2" stroke-linecap="round" stroke-linejoin="round"/>
<path d="M27 10L30 9" stroke="#009379" stroke-width="2" stroke-linecap="round" stroke-linejoin="round"/>
<path d="M9.6001 12.6L19.4001 22.4" stroke="#009379" stroke-width="2" stroke-linecap="round" stroke-linejoin="round"/>
</svg>
