<svg width="21" height="20" viewBox="0 0 21 20" fill="none" xmlns="http://www.w3.org/2000/svg">
<path d="M1.65845 2.125C1.65845 1.82663 1.77624 1.54048 1.98591 1.32951C2.19557 1.11853 2.47994 1 2.77646 1H7.24851C7.54502 1 7.8294 1.11853 8.03906 1.32951C8.24873 1.54048 8.36652 1.82663 8.36652 2.125V7.75C8.36652 8.04837 8.24873 8.33452 8.03906 8.54549C7.8294 8.75647 7.54502 8.875 7.24851 8.875H2.77646C2.47994 8.875 2.19557 8.75647 1.98591 8.54549C1.77624 8.33452 1.65845 8.04837 1.65845 7.75V2.125ZM12.8386 2.125C12.8386 1.82663 12.9564 1.54048 13.166 1.32951C13.3757 1.11853 13.6601 1 13.9566 1H18.4286C18.7251 1 19.0095 1.11853 19.2192 1.32951C19.4289 1.54048 19.5466 1.82663 19.5466 2.125V4.375C19.5466 4.67337 19.4289 4.95952 19.2192 5.17049C19.0095 5.38147 18.7251 5.5 18.4286 5.5H13.9566C13.6601 5.5 13.3757 5.38147 13.166 5.17049C12.9564 4.95952 12.8386 4.67337 12.8386 4.375V2.125ZM1.65845 14.5C1.65845 14.2016 1.77624 13.9155 1.98591 13.7045C2.19557 13.4935 2.47994 13.375 2.77646 13.375H7.24851C7.54502 13.375 7.8294 13.4935 8.03906 13.7045C8.24873 13.9155 8.36652 14.2016 8.36652 14.5V17.875C8.36652 18.1734 8.24873 18.4595 8.03906 18.6705C7.8294 18.8815 7.54502 19 7.24851 19H2.77646C2.47994 19 2.19557 18.8815 1.98591 18.6705C1.77624 18.4595 1.65845 18.1734 1.65845 17.875V14.5ZM12.8386 11.125C12.8386 10.8266 12.9564 10.5405 13.166 10.3295C13.3757 10.1185 13.6601 10 13.9566 10H18.4286C18.7251 10 19.0095 10.1185 19.2192 10.3295C19.4289 10.5405 19.5466 10.8266 19.5466 11.125V17.875C19.5466 18.1734 19.4289 18.4595 19.2192 18.6705C19.0095 18.8815 18.7251 19 18.4286 19H13.9566C13.6601 19 13.3757 18.8815 13.166 18.6705C12.9564 18.4595 12.8386 18.1734 12.8386 17.875V11.125Z" stroke="white" stroke-width="1.5"/>
</svg>
