<svg width="18" height="20" viewBox="0 0 18 20" fill="none" xmlns="http://www.w3.org/2000/svg">
<path d="M2.25 5.5H3.75M3.75 5.5H15.75M3.75 5.5V16C3.75 16.3978 3.90804 16.7794 4.18934 17.0607C4.47065 17.342 4.85218 17.5 5.25001 17.5H12.75C13.1478 17.5 13.5294 17.342 13.8107 17.0607C14.092 16.7794 14.25 16.3978 14.25 16V5.5M6.00001 5.5V4C6.00001 3.60218 6.15804 3.22064 6.43935 2.93934C6.72065 2.65804 7.10218 2.5 7.50001 2.5H10.5C10.8978 2.5 11.2794 2.65804 11.5607 2.93934C11.842 3.22064 12 3.60218 12 4V5.5" stroke="white" stroke-width="4" stroke-linecap="round" stroke-linejoin="round"/>
</svg>
