<svg width="52" height="52" viewBox="0 0 52 52" fill="none" xmlns="http://www.w3.org/2000/svg">
<path d="M0 26C0 20.4219 0 17.6328 0.552601 15.3311C2.30829 8.01812 8.01812 2.30829 15.3311 0.552601C17.6328 0 20.4219 0 26 0C31.5781 0 34.3672 0 36.6689 0.552601C43.9819 2.30829 49.6917 8.01812 51.4474 15.3311C52 17.6328 52 20.4219 52 26C52 31.5781 52 34.3672 51.4474 36.6689C49.6917 43.9819 43.9819 49.6917 36.6689 51.4474C34.3672 52 31.5781 52 26 52C20.4219 52 17.6328 52 15.3311 51.4474C8.01812 49.6917 2.30829 43.9819 0.552601 36.6689C0 34.3672 0 31.5781 0 26Z" fill="#E5F4F2"/>
<path d="M26.0003 34.3332C30.5837 34.3332 34.3337 30.5832 34.3337 25.9998C34.3337 21.4165 30.5837 17.6665 26.0003 17.6665C21.417 17.6665 17.667 21.4165 17.667 25.9998C17.667 30.5832 21.417 34.3332 26.0003 34.3332Z" stroke="#009379" stroke-width="1.5" stroke-linecap="round" stroke-linejoin="round"/>
<g opacity="0.4">
<path d="M23.6416 28.3583L28.3583 23.6416" stroke="#009379" stroke-width="1.5" stroke-linecap="round" stroke-linejoin="round"/>
<path d="M28.3583 28.3583L23.6416 23.6416" stroke="#009379" stroke-width="1.5" stroke-linecap="round" stroke-linejoin="round"/>
</g>
</svg>
