<svg width="31" height="30" viewBox="0 0 31 30" fill="none" xmlns="http://www.w3.org/2000/svg">
<path opacity="0.4" d="M4.63946 2.5H15.7645C16.6895 2.5 17.452 3.26251 17.452 4.18751V6.03748C17.452 6.71248 17.027 7.55001 16.6145 7.97501L12.9895 11.175C12.4895 11.6 12.152 12.4375 12.152 13.1125V16.7375C12.152 17.2375 11.8145 17.9125 11.3895 18.175L10.2145 18.9375C9.11449 19.6125 7.60196 18.85 7.60196 17.5V13.0375C7.60196 12.45 7.26449 11.6875 6.92699 11.2625L3.72699 7.8875C3.30199 7.4625 2.96451 6.71249 2.96451 6.19999V4.2625C2.95201 3.2625 3.71446 2.5 4.63946 2.5Z" stroke="#009379" stroke-width="2" stroke-miterlimit="10" stroke-linecap="round" stroke-linejoin="round"/>
<path d="M2.95215 15V18.75C2.95215 25 5.45215 27.5 11.7021 27.5H19.2021C25.4521 27.5 27.9521 25 27.9521 18.75V11.25C27.9521 7.35 26.9771 4.89999 24.7146 3.62499C24.0771 3.26249 22.8022 2.98749 21.6397 2.79999" stroke="#009379" stroke-width="2" stroke-linecap="round" stroke-linejoin="round"/>
<path opacity="0.4" d="M16.7021 16.25H22.9521" stroke="#009379" stroke-width="2" stroke-linecap="round" stroke-linejoin="round"/>
<path opacity="0.4" d="M14.2021 21.25H22.9521" stroke="#009379" stroke-width="2" stroke-linecap="round" stroke-linejoin="round"/>
</svg>
