<svg width="31" height="30" viewBox="0 0 31 30" fill="none" xmlns="http://www.w3.org/2000/svg">
<g opacity="0.4">
<path d="M11.292 17.9123C11.292 19.5248 12.5295 20.8248 14.067 20.8248H17.2045C18.542 20.8248 19.6295 19.6873 19.6295 18.2873C19.6295 16.7623 18.967 16.2248 17.9795 15.8748L12.942 14.1248C11.9545 13.7748 11.292 13.2373 11.292 11.7123C11.292 10.3123 12.3795 9.1748 13.717 9.1748H16.8545C18.392 9.1748 19.6295 10.4748 19.6295 12.0873" stroke="#009379" stroke-width="2" stroke-linecap="round" stroke-linejoin="round"/>
<path d="M15.4521 7.5V22.5" stroke="#009379" stroke-width="1.5" stroke-linecap="round" stroke-linejoin="round"/>
</g>
<path d="M15.4521 27.5C22.3557 27.5 27.9521 21.9036 27.9521 15C27.9521 8.09644 22.3557 2.5 15.4521 2.5C8.54859 2.5 2.95215 8.09644 2.95215 15C2.95215 21.9036 8.54859 27.5 15.4521 27.5Z" stroke="#009379" stroke-width="2" stroke-linecap="round" stroke-linejoin="round"/>
</svg>
