<svg width="20" height="20" viewBox="0 0 20 20" fill="none" xmlns="http://www.w3.org/2000/svg">
<path d="M9.25 4.00005H4C3.60218 4.00005 3.22064 4.15808 2.93934 4.43939C2.65804 4.72069 2.5 5.10222 2.5 5.50005V16C2.5 16.3979 2.65804 16.7794 2.93934 17.0607C3.22064 17.342 3.60218 17.5 4 17.5H14.5C14.8978 17.5 15.2794 17.342 15.5607 17.0607C15.842 16.7794 16 16.3979 16 16V10.75M14.875 2.87505C15.1734 2.57668 15.578 2.40906 16 2.40906C16.422 2.40906 16.8266 2.57668 17.125 2.87505C17.4234 3.17342 17.591 3.57809 17.591 4.00005C17.591 4.422 17.4234 4.82668 17.125 5.12505L10 12.25L7 13L7.75 10L14.875 2.87505Z" stroke="white" stroke-width="4" stroke-linecap="round" stroke-linejoin="round"/>
</svg>
