<svg width="21" height="21" viewBox="0 0 21 21" fill="none" xmlns="http://www.w3.org/2000/svg">
<path fill-rule="evenodd" clip-rule="evenodd" d="M18.6562 0H2.65625C1.55168 0 0.65625 0.92126 0.65625 2.05769V18.5192C0.65625 19.6557 1.55168 20.5769 2.65625 20.5769H10.6562V12.8303H7.65625V9.92533H10.6562V8.36536C10.6562 5.41197 12.1459 4.11538 14.5812 4.11538C15.7246 4.11538 16.3398 4.19915 16.6387 4.23985L16.6562 4.24223V7.02036H14.9953C13.9616 7.02036 13.6562 7.57037 13.6562 8.68394V9.92533H16.6303L16.2191 12.8303H13.6562V20.5769H18.6562C19.7608 20.5769 20.6562 19.6557 20.6562 18.5192V2.05769C20.6562 0.92126 19.7608 0 18.6562 0Z" fill="#009379"/>
</svg>
