<svg width="53" height="52" viewBox="0 0 53 52" fill="none" xmlns="http://www.w3.org/2000/svg">
<path d="M0.452148 26C0.452148 20.4219 0.452148 17.6328 1.00475 15.3311C2.76044 8.01812 8.47026 2.30829 15.7832 0.552601C18.085 0 20.874 0 26.4521 0C32.0303 0 34.8193 0 37.1211 0.552601C44.434 2.30829 50.1439 8.01812 51.8995 15.3311C52.4521 17.6328 52.4521 20.4219 52.4521 26C52.4521 31.5781 52.4521 34.3672 51.8995 36.6689C50.1439 43.9819 44.434 49.6917 37.1211 51.4474C34.8193 52 32.0303 52 26.4521 52C20.874 52 18.085 52 15.7832 51.4474C8.47026 49.6917 2.76044 43.9819 1.00475 36.6689C0.452148 34.3672 0.452148 31.5781 0.452148 26Z" fill="#E5F4F2"/>
<path d="M26.9687 33.3417C26.6853 33.4417 26.2187 33.4417 25.9353 33.3417C23.5187 32.5167 18.1187 29.075 18.1187 23.2417C18.1187 20.6667 20.1937 18.5833 22.752 18.5833C24.2687 18.5833 25.6103 19.3167 26.452 20.45C27.2937 19.3167 28.6437 18.5833 30.152 18.5833C32.7103 18.5833 34.7853 20.6667 34.7853 23.2417C34.7853 29.075 29.3853 32.5167 26.9687 33.3417Z" stroke="#009379" stroke-width="2" stroke-linecap="round" stroke-linejoin="round"/>
</svg>
