<svg width="20" height="23" viewBox="0 0 20 23" fill="none" xmlns="http://www.w3.org/2000/svg">
<g clip-path="url(#clip0_11_2158)">
<path d="M3.37651 1.84596C3.47828 1.85815 3.57374 1.85687 3.66034 1.85623H3.68563C3.69953 1.85623 3.71407 1.85623 3.72355 1.85623C3.96946 1.85687 4.21536 1.85623 4.46695 1.85687V2.57253C4.46695 3.42811 4.46758 4.28434 4.46569 5.13992C4.46505 5.42041 4.4935 5.74198 4.69831 6.03209C4.42523 6.95379 4.38414 7.8697 4.57568 8.75546C5.08265 11.0988 6.52266 12.6367 8.74084 13.2035C9.25983 13.3363 9.77249 13.4031 10.2643 13.4031H10.2649C11.8851 13.4031 13.3434 12.6656 14.4832 11.2709C15.707 9.77279 16.0591 8.01155 15.5313 6.03402C15.7355 5.70475 15.7614 5.35815 15.7607 5.08793C15.7576 4.25674 15.7582 3.41784 15.7588 2.6059V1.8742H15.8341V2.25931C15.8334 2.73363 15.8328 3.22401 15.8366 3.71053C15.8404 4.21694 16.1969 4.61104 16.6837 4.64827C17.1262 4.68228 17.544 4.3665 17.6369 3.9294C17.6609 3.81515 17.6609 3.71181 17.6603 3.62837V3.59884C17.6603 3.34082 17.6597 3.0828 17.6591 2.82478C17.6578 2.25353 17.6559 1.66303 17.6647 1.08087C17.6723 0.592426 17.4631 0.233633 17.0592 0.0430039L16.9726 0H3.21974L3.10848 0.0744544C3.09584 0.0827985 3.0832 0.0911425 3.06929 0.0994865C3.02441 0.127728 2.96878 0.16303 2.91126 0.21181C2.61478 0.46534 2.50542 0.818999 2.61036 1.18228C2.71845 1.55392 3.00481 1.80167 3.37651 1.84596ZM6.31343 4.78819V1.86714H13.9105V4.78819H6.31343ZM6.42089 6.6611C7.34381 6.6656 8.28001 6.66495 9.18587 6.66495H11.0393C11.9458 6.6656 12.8826 6.66624 13.8068 6.6611C14.1197 7.87163 13.8561 9.11682 13.076 10.0937C12.272 11.1001 11.0798 11.6207 9.80536 11.5205C8.66562 11.432 7.6346 10.8254 6.97717 9.85687C6.33682 8.91271 6.13643 7.75417 6.42089 6.6611Z" fill="white"/>
<path d="M19.479 18.3826C19.3203 17.0623 18.6793 15.8325 17.6742 14.9192C16.6742 14.0109 15.3986 13.4917 14.0837 13.457C13.7069 13.4461 13.3966 13.5713 13.1349 13.8402C12.4768 14.5167 11.8099 15.1932 11.1639 15.8479C10.8402 16.1759 10.5165 16.5045 10.1935 16.8332C10.167 16.8601 10.1404 16.8877 10.1158 16.9147C9.76999 16.5629 9.42357 16.2112 9.07716 15.8595C8.41784 15.19 7.73639 14.4981 7.06001 13.8075C6.82295 13.5655 6.54608 13.4506 6.20978 13.4564C5.22744 13.475 4.3298 13.7272 3.54089 14.2054C1.28668 15.5713 0.372609 17.6849 0.745571 20.6669C0.914352 22.0174 2.09203 22.9981 3.54595 22.9994C5.47397 23.0007 7.40199 23.0007 9.33002 23.0007L16.6843 23C16.7621 23 16.8316 22.9987 16.8967 22.9955C18.2596 22.9288 19.4354 21.7946 19.5176 20.4673C19.5669 19.6855 19.5536 19.0039 19.479 18.3826ZM17.6995 20.2959C17.6679 20.778 17.2242 21.1419 16.6673 21.1425C15.2323 21.1444 13.7973 21.1438 12.3618 21.1438L10.1196 21.1432H7.81668C6.40195 21.1432 4.98722 21.1432 3.57186 21.1425C3.03897 21.1419 2.62682 20.862 2.56992 20.4609C2.32086 18.7176 2.57119 16.4423 5.1775 15.5C5.33174 15.4442 5.51 15.4127 5.69838 15.3794C5.78688 15.364 5.87727 15.3479 5.9702 15.328C6.9045 16.2831 7.85713 17.2497 8.77942 18.1849L9.37174 18.7857C9.86481 19.2857 10.3667 19.2837 10.8636 18.7799L11.4723 18.1624C12.3877 17.2337 13.3346 16.2735 14.262 15.3248C16.1167 15.5488 17.4947 16.9435 17.6926 18.7998C17.7375 19.2221 17.74 19.6836 17.6995 20.2959Z" fill="white"/>
</g>
<defs>
<clipPath id="clip0_11_2158">
<rect width="18.882" height="23" fill="white" transform="translate(0.664673)"/>
</clipPath>
</defs>
</svg>
