<svg width="200" height="61" viewBox="0 0 200 61" fill="none" xmlns="http://www.w3.org/2000/svg">
<path d="M0 30.137C0 20.8181 0 16.1587 1.52241 12.4833C3.55229 7.58273 7.44577 3.68925 12.3463 1.65937C16.0218 0.136963 20.6812 0.136963 30 0.136963H170C179.319 0.136963 183.978 0.136963 187.654 1.65937C192.554 3.68925 196.448 7.58273 198.478 12.4833C200 16.1587 200 20.8181 200 30.137C200 39.4558 200 44.1152 198.478 47.7906C196.448 52.6912 192.554 56.5847 187.654 58.6146C183.978 60.137 179.319 60.137 170 60.137H30C20.6812 60.137 16.0218 60.137 12.3463 58.6146C7.44577 56.5847 3.55229 52.6912 1.52241 47.7906C0 44.1152 0 39.4558 0 30.137Z" fill="#575757"/>
<path d="M34.7377 18.0319C34.4192 18.4128 34.2584 18.9009 34.2882 19.3965V40.8773C34.2583 41.3729 34.4191 41.8611 34.7377 42.2419L34.8096 42.3119L46.8427 30.2789V29.995L34.8096 17.9614L34.7377 18.0319Z" fill="url(#paint0_linear_259_3435)"/>
<path d="M50.8536 34.2916L46.8428 30.2788V29.9949L50.8545 25.9832L50.945 26.0347L55.6972 28.735C57.0547 29.5062 57.0547 30.7681 55.6972 31.5397L50.945 34.24L50.8536 34.2916Z" fill="url(#paint1_linear_259_3435)"/>
<path d="M50.945 34.2395L46.8428 30.137L34.7378 42.2419C35.0144 42.4858 35.3676 42.6253 35.7362 42.6362C36.1049 42.6471 36.4657 42.5287 36.7562 42.3015L50.945 34.2395Z" fill="url(#paint2_linear_259_3435)"/>
<path d="M50.945 26.0343L36.7562 17.9724C36.4657 17.7452 36.1049 17.6268 35.7362 17.6377C35.3676 17.6485 35.0144 17.788 34.7378 18.032L46.8428 30.137L50.945 26.0343Z" fill="url(#paint3_linear_259_3435)"/>
<path opacity="0.2" d="M50.8546 34.1492L36.7562 42.1596C36.4769 42.3722 36.136 42.4882 35.7849 42.4901C35.4339 42.492 35.0917 42.3796 34.8102 42.17L34.7378 42.2423L34.8097 42.3124L34.8102 42.3119C35.0917 42.5216 35.4338 42.6341 35.7849 42.6322C36.136 42.6303 36.4769 42.5142 36.7562 42.3015L50.945 34.2395L50.8546 34.1492Z" fill="#2D2D2D"/>
<path opacity="0.12" d="M34.7377 42.1006C34.4192 41.7198 34.2584 41.2316 34.2882 40.7361V40.878C34.2584 41.3735 34.4192 41.8617 34.7377 42.2425L34.81 42.1702L34.7377 42.1006Z" fill="#2D2D2D"/>
<path opacity="0.12" d="M55.6972 31.3975L50.8545 34.1493L50.9449 34.2396L55.6972 31.5394C55.9767 31.4181 56.2186 31.224 56.3977 30.9775C56.5768 30.7309 56.6865 30.4408 56.7154 30.1375C56.6553 30.4122 56.532 30.6691 56.3552 30.8878C56.1785 31.1066 55.9532 31.2811 55.6972 31.3975Z" fill="#2D2D2D"/>
<path opacity="0.25" d="M36.756 18.1148L55.6971 28.8766C55.9531 28.993 56.1785 29.1676 56.3553 29.3864C56.5321 29.6052 56.6553 29.8623 56.7153 30.1371C56.6866 29.8336 56.577 29.5434 56.3979 29.2967C56.2188 29.05 55.9767 28.8559 55.6971 28.7347L36.756 17.9729C35.3985 17.2017 34.2881 17.8423 34.2881 19.3971V19.539C34.2881 17.9843 35.3985 17.3437 36.756 18.1148Z" fill="white"/>
<path d="M73.8097 25.245C72.8817 25.245 72.1057 25.073 71.4817 24.729C70.8577 24.385 70.3897 23.889 70.0777 23.241C69.7657 22.593 69.6097 21.817 69.6097 20.913C69.6097 20.017 69.7737 19.245 70.1017 18.597C70.4297 17.949 70.9017 17.449 71.5177 17.097C72.1337 16.745 72.8777 16.569 73.7497 16.569C74.3657 16.569 74.8977 16.661 75.3457 16.845C75.8017 17.021 76.2097 17.285 76.5697 17.637L76.1977 18.417C75.9337 18.185 75.6777 18.001 75.4297 17.865C75.1897 17.729 74.9377 17.629 74.6737 17.565C74.4097 17.493 74.1017 17.457 73.7497 17.457C72.7497 17.457 71.9817 17.761 71.4457 18.369C70.9177 18.969 70.6537 19.821 70.6537 20.925C70.6537 22.037 70.9097 22.889 71.4217 23.481C71.9417 24.073 72.7457 24.369 73.8337 24.369C74.2337 24.369 74.6137 24.333 74.9737 24.261C75.3417 24.181 75.6977 24.069 76.0417 23.925L75.8257 24.465V21.489H73.6657V20.709H76.6777V24.633C76.3337 24.817 75.8977 24.965 75.3697 25.077C74.8497 25.189 74.3297 25.245 73.8097 25.245ZM81.2671 25.245C80.3231 25.245 79.5791 24.973 79.0351 24.429C78.4911 23.877 78.2191 23.113 78.2191 22.137C78.2191 21.505 78.3391 20.957 78.5791 20.493C78.8191 20.021 79.1551 19.657 79.5871 19.401C80.0191 19.137 80.5151 19.005 81.0751 19.005C81.6271 19.005 82.0911 19.121 82.4671 19.353C82.8431 19.585 83.1311 19.917 83.3311 20.349C83.5311 20.773 83.6311 21.277 83.6311 21.861V22.221H78.9631V21.609H82.9951L82.7911 21.765C82.7911 21.125 82.6471 20.625 82.3591 20.265C82.0711 19.905 81.6431 19.725 81.0751 19.725C80.4751 19.725 80.0071 19.937 79.6711 20.361C79.3351 20.777 79.1671 21.341 79.1671 22.053V22.161C79.1671 22.913 79.3511 23.485 79.7191 23.877C80.0951 24.261 80.6191 24.453 81.2911 24.453C81.6511 24.453 81.9871 24.401 82.2991 24.297C82.6191 24.185 82.9231 24.005 83.2111 23.757L83.5471 24.441C83.2831 24.697 82.9471 24.897 82.5391 25.041C82.1391 25.177 81.7151 25.245 81.2671 25.245ZM87.2544 25.245C86.6624 25.245 86.2104 25.077 85.8984 24.741C85.5864 24.397 85.4304 23.881 85.4304 23.193V19.869H84.2544V19.113H85.4304V17.469L86.4024 17.193V19.113H88.1304V19.869H86.4024V23.085C86.4024 23.565 86.4824 23.909 86.6424 24.117C86.8104 24.317 87.0584 24.417 87.3864 24.417C87.5384 24.417 87.6744 24.405 87.7944 24.381C87.9144 24.349 88.0224 24.313 88.1184 24.273V25.089C88.0064 25.137 87.8704 25.173 87.7104 25.197C87.5584 25.229 87.4064 25.245 87.2544 25.245ZM92.4426 25.137V19.113H93.4146V25.137H92.4426ZM92.3226 17.745V16.653H93.5226V17.745H92.3226ZM97.438 25.245C96.846 25.245 96.394 25.077 96.082 24.741C95.77 24.397 95.614 23.881 95.614 23.193V19.869H94.438V19.113H95.614V17.469L96.586 17.193V19.113H98.314V19.869H96.586V23.085C96.586 23.565 96.666 23.909 96.826 24.117C96.994 24.317 97.242 24.417 97.57 24.417C97.722 24.417 97.858 24.405 97.978 24.381C98.098 24.349 98.206 24.313 98.302 24.273V25.089C98.19 25.137 98.054 25.173 97.894 25.197C97.742 25.229 97.59 25.245 97.438 25.245ZM105.098 25.245C104.522 25.245 104.018 25.121 103.586 24.873C103.162 24.617 102.834 24.257 102.602 23.793C102.37 23.321 102.254 22.765 102.254 22.125C102.254 21.477 102.37 20.921 102.602 20.457C102.834 19.993 103.162 19.637 103.586 19.389C104.018 19.133 104.522 19.005 105.098 19.005C105.682 19.005 106.186 19.133 106.61 19.389C107.042 19.637 107.374 19.993 107.606 20.457C107.846 20.921 107.966 21.477 107.966 22.125C107.966 22.765 107.846 23.321 107.606 23.793C107.374 24.257 107.042 24.617 106.61 24.873C106.186 25.121 105.682 25.245 105.098 25.245ZM105.098 24.453C105.674 24.453 106.13 24.257 106.466 23.865C106.802 23.465 106.97 22.885 106.97 22.125C106.97 21.357 106.798 20.777 106.454 20.385C106.118 19.985 105.666 19.785 105.098 19.785C104.53 19.785 104.078 19.985 103.742 20.385C103.406 20.777 103.238 21.357 103.238 22.125C103.238 22.885 103.406 23.465 103.742 23.865C104.078 24.257 104.53 24.453 105.098 24.453ZM109.482 25.137V20.505C109.482 20.281 109.47 20.053 109.446 19.821C109.43 19.581 109.41 19.345 109.386 19.113H110.322L110.442 20.433H110.298C110.474 19.969 110.754 19.617 111.138 19.377C111.53 19.129 111.982 19.005 112.494 19.005C113.206 19.005 113.742 19.197 114.102 19.581C114.47 19.957 114.654 20.553 114.654 21.369V25.137H113.682V21.429C113.682 20.861 113.566 20.449 113.334 20.193C113.11 19.929 112.758 19.797 112.278 19.797C111.718 19.797 111.274 19.969 110.946 20.313C110.618 20.657 110.454 21.117 110.454 21.693V25.137H109.482Z" fill="white"/>
<path d="M77.9 35.329C77.644 34.8596 77.292 34.5023 76.844 34.257C76.396 34.0116 75.8734 33.889 75.276 33.889C74.6147 33.889 74.028 34.0383 73.516 34.337C73.004 34.6356 72.604 35.0623 72.316 35.617C72.028 36.1716 71.884 36.8116 71.884 37.537C71.884 38.2836 72.028 38.9343 72.316 39.489C72.6147 40.0436 73.0254 40.4703 73.548 40.769C74.0707 41.0676 74.6787 41.217 75.372 41.217C76.2254 41.217 76.924 40.993 77.468 40.545C78.012 40.0863 78.3694 39.4516 78.54 38.641H74.7V36.929H80.748V38.881C80.5987 39.6596 80.2787 40.3796 79.788 41.041C79.2974 41.7023 78.6627 42.2356 77.884 42.641C77.116 43.0356 76.252 43.233 75.292 43.233C74.2147 43.233 73.2387 42.993 72.364 42.513C71.5 42.0223 70.8174 41.345 70.316 40.481C69.8254 39.617 69.58 38.6356 69.58 37.537C69.58 36.4383 69.8254 35.457 70.316 34.593C70.8174 33.7183 71.5 33.041 72.364 32.561C73.2387 32.0703 74.2094 31.825 75.276 31.825C76.5347 31.825 77.628 32.1343 78.556 32.753C79.484 33.361 80.124 34.2196 80.476 35.329H77.9ZM86.3413 43.281C85.4879 43.281 84.7199 43.0943 84.0373 42.721C83.3546 42.337 82.8159 41.7983 82.4213 41.105C82.0373 40.4116 81.8453 39.6116 81.8453 38.705C81.8453 37.7983 82.0426 36.9983 82.4373 36.305C82.8426 35.6116 83.3919 35.0783 84.0853 34.705C84.7786 34.321 85.5519 34.129 86.4053 34.129C87.2586 34.129 88.0319 34.321 88.7253 34.705C89.4186 35.0783 89.9626 35.6116 90.3573 36.305C90.7626 36.9983 90.9653 37.7983 90.9653 38.705C90.9653 39.6116 90.7573 40.4116 90.3413 41.105C89.9359 41.7983 89.3813 42.337 88.6773 42.721C87.9839 43.0943 87.2053 43.281 86.3413 43.281ZM86.3413 41.329C86.7466 41.329 87.1253 41.233 87.4773 41.041C87.8399 40.8383 88.1279 40.5396 88.3413 40.145C88.5546 39.7503 88.6613 39.2703 88.6613 38.705C88.6613 37.8623 88.4373 37.217 87.9893 36.769C87.5519 36.3103 87.0133 36.081 86.3733 36.081C85.7333 36.081 85.1946 36.3103 84.7573 36.769C84.3306 37.217 84.1173 37.8623 84.1173 38.705C84.1173 39.5476 84.3253 40.1983 84.7413 40.657C85.1679 41.105 85.7013 41.329 86.3413 41.329ZM96.5444 43.281C95.6911 43.281 94.9231 43.0943 94.2404 42.721C93.5577 42.337 93.0191 41.7983 92.6244 41.105C92.2404 40.4116 92.0484 39.6116 92.0484 38.705C92.0484 37.7983 92.2457 36.9983 92.6404 36.305C93.0457 35.6116 93.5951 35.0783 94.2884 34.705C94.9817 34.321 95.7551 34.129 96.6084 34.129C97.4617 34.129 98.2351 34.321 98.9284 34.705C99.6217 35.0783 100.166 35.6116 100.56 36.305C100.966 36.9983 101.168 37.7983 101.168 38.705C101.168 39.6116 100.96 40.4116 100.544 41.105C100.139 41.7983 99.5844 42.337 98.8804 42.721C98.1871 43.0943 97.4084 43.281 96.5444 43.281ZM96.5444 41.329C96.9497 41.329 97.3284 41.233 97.6804 41.041C98.0431 40.8383 98.3311 40.5396 98.5444 40.145C98.7577 39.7503 98.8644 39.2703 98.8644 38.705C98.8644 37.8623 98.6404 37.217 98.1924 36.769C97.7551 36.3103 97.2164 36.081 96.5764 36.081C95.9364 36.081 95.3977 36.3103 94.9604 36.769C94.5337 37.217 94.3204 37.8623 94.3204 38.705C94.3204 39.5476 94.5284 40.1983 94.9444 40.657C95.3711 41.105 95.9044 41.329 96.5444 41.329ZM106.284 34.129C106.945 34.129 107.526 34.2623 108.028 34.529C108.529 34.785 108.924 35.121 109.212 35.537V34.273H111.468V43.201C111.468 44.0223 111.302 44.753 110.972 45.393C110.641 46.0436 110.145 46.5556 109.484 46.929C108.822 47.313 108.022 47.505 107.084 47.505C105.825 47.505 104.79 47.2116 103.98 46.625C103.18 46.0383 102.726 45.2383 102.62 44.225H104.844C104.961 44.6303 105.212 44.9503 105.596 45.185C105.99 45.4303 106.465 45.553 107.02 45.553C107.67 45.553 108.198 45.3556 108.604 44.961C109.009 44.577 109.212 43.9903 109.212 43.201V41.825C108.924 42.241 108.524 42.5876 108.012 42.865C107.51 43.1423 106.934 43.281 106.284 43.281C105.537 43.281 104.854 43.089 104.236 42.705C103.617 42.321 103.126 41.7823 102.764 41.089C102.412 40.385 102.236 39.5796 102.236 38.673C102.236 37.777 102.412 36.9823 102.764 36.289C103.126 35.5956 103.612 35.0623 104.22 34.689C104.838 34.3156 105.526 34.129 106.284 34.129ZM109.212 38.705C109.212 38.161 109.105 37.697 108.892 37.313C108.678 36.9183 108.39 36.6196 108.028 36.417C107.665 36.2036 107.276 36.097 106.86 36.097C106.444 36.097 106.06 36.1983 105.708 36.401C105.356 36.6036 105.068 36.9023 104.844 37.297C104.63 37.681 104.524 38.1396 104.524 38.673C104.524 39.2063 104.63 39.6756 104.844 40.081C105.068 40.4756 105.356 40.7796 105.708 40.993C106.07 41.2063 106.454 41.313 106.86 41.313C107.276 41.313 107.665 41.2116 108.028 41.009C108.39 40.7956 108.678 40.497 108.892 40.113C109.105 39.7183 109.212 39.249 109.212 38.705ZM115.895 31.297V43.137H113.655V31.297H115.895ZM126.348 38.513C126.348 38.833 126.327 39.121 126.284 39.377H119.804C119.858 40.017 120.082 40.5183 120.476 40.881C120.871 41.2436 121.356 41.425 121.932 41.425C122.764 41.425 123.356 41.0676 123.708 40.353H126.124C125.868 41.2063 125.378 41.9103 124.652 42.465C123.927 43.009 123.036 43.281 121.98 43.281C121.127 43.281 120.359 43.0943 119.676 42.721C119.004 42.337 118.476 41.7983 118.092 41.105C117.719 40.4116 117.532 39.6116 117.532 38.705C117.532 37.7876 117.719 36.9823 118.092 36.289C118.466 35.5956 118.988 35.0623 119.66 34.689C120.332 34.3156 121.106 34.129 121.98 34.129C122.823 34.129 123.575 34.3103 124.236 34.673C124.908 35.0356 125.426 35.553 125.788 36.225C126.162 36.8863 126.348 37.649 126.348 38.513ZM124.028 37.873C124.018 37.297 123.81 36.8383 123.404 36.497C122.999 36.145 122.503 35.969 121.916 35.969C121.362 35.969 120.892 36.1396 120.508 36.481C120.135 36.8116 119.906 37.2756 119.82 37.873H124.028ZM139.94 35.425C139.94 36.0223 139.796 36.5823 139.508 37.105C139.231 37.6276 138.788 38.049 138.18 38.369C137.583 38.689 136.825 38.849 135.908 38.849H134.036V43.137H131.796V31.969H135.908C136.772 31.969 137.508 32.1183 138.116 32.417C138.724 32.7156 139.177 33.1263 139.476 33.649C139.785 34.1716 139.94 34.7636 139.94 35.425ZM135.812 37.041C136.431 37.041 136.889 36.9023 137.188 36.625C137.487 36.337 137.636 35.937 137.636 35.425C137.636 34.337 137.028 33.793 135.812 33.793H134.036V37.041H135.812ZM143.77 31.297V43.137H141.53V31.297H143.77ZM145.407 38.673C145.407 37.777 145.583 36.9823 145.935 36.289C146.298 35.5956 146.783 35.0623 147.391 34.689C148.01 34.3156 148.698 34.129 149.455 34.129C150.117 34.129 150.693 34.2623 151.183 34.529C151.685 34.7956 152.085 35.1316 152.383 35.537V34.273H154.639V43.137H152.383V41.841C152.095 42.257 151.695 42.6036 151.183 42.881C150.682 43.1476 150.101 43.281 149.439 43.281C148.693 43.281 148.01 43.089 147.391 42.705C146.783 42.321 146.298 41.7823 145.935 41.089C145.583 40.385 145.407 39.5796 145.407 38.673ZM152.383 38.705C152.383 38.161 152.277 37.697 152.063 37.313C151.85 36.9183 151.562 36.6196 151.199 36.417C150.837 36.2036 150.447 36.097 150.031 36.097C149.615 36.097 149.231 36.1983 148.879 36.401C148.527 36.6036 148.239 36.9023 148.015 37.297C147.802 37.681 147.695 38.1396 147.695 38.673C147.695 39.2063 147.802 39.6756 148.015 40.081C148.239 40.4756 148.527 40.7796 148.879 40.993C149.242 41.2063 149.626 41.313 150.031 41.313C150.447 41.313 150.837 41.2116 151.199 41.009C151.562 40.7956 151.85 40.497 152.063 40.113C152.277 39.7183 152.383 39.249 152.383 38.705ZM165.307 34.273L159.819 47.329H157.435L159.355 42.913L155.803 34.273H158.315L160.603 40.465L162.923 34.273H165.307Z" fill="white"/>
<defs>
<linearGradient id="paint0_linear_259_3435" x1="45.7756" y1="19.17" x2="29.4753" y2="35.4704" gradientUnits="userSpaceOnUse">
<stop stop-color="#00A0FF"/>
<stop offset="0.00657" stop-color="#00A1FF"/>
<stop offset="0.2601" stop-color="#00BEFF"/>
<stop offset="0.5122" stop-color="#00D2FF"/>
<stop offset="0.7604" stop-color="#00DFFF"/>
<stop offset="1" stop-color="#00E3FF"/>
</linearGradient>
<linearGradient id="paint1_linear_259_3435" x1="57.4646" y1="30.1374" x2="33.9628" y2="30.1374" gradientUnits="userSpaceOnUse">
<stop stop-color="#FFE000"/>
<stop offset="0.4087" stop-color="#FFBD00"/>
<stop offset="0.7754" stop-color="#FFA500"/>
<stop offset="1" stop-color="#FF9C00"/>
</linearGradient>
<linearGradient id="paint2_linear_259_3435" x1="48.716" y1="32.3661" x2="26.6114" y2="54.4707" gradientUnits="userSpaceOnUse">
<stop stop-color="#FF3A44"/>
<stop offset="1" stop-color="#C31162"/>
</linearGradient>
<linearGradient id="paint3_linear_259_3435" x1="31.6899" y1="10.8816" x2="41.5605" y2="20.7522" gradientUnits="userSpaceOnUse">
<stop stop-color="#32A071"/>
<stop offset="0.0685" stop-color="#2DA771"/>
<stop offset="0.4762" stop-color="#15CF74"/>
<stop offset="0.8009" stop-color="#06E775"/>
<stop offset="1" stop-color="#00F076"/>
</linearGradient>
</defs>
</svg>
