<svg width="21" height="21" viewBox="0 0 21 21" fill="none" xmlns="http://www.w3.org/2000/svg">
<path fill-rule="evenodd" clip-rule="evenodd" d="M6.65625 0H14.6562C17.97 0 20.6562 2.76378 20.6562 6.17307V14.4038C20.6562 17.8131 17.97 20.5769 14.6562 20.5769H6.65625C3.34254 20.5769 0.65625 17.8131 0.65625 14.4038V6.17307C0.65625 2.76378 3.34254 0 6.65625 0ZM16.6562 3.08654C17.1562 3.08654 17.6562 3.60096 17.6562 4.11538C17.6562 4.62981 17.1562 5.14423 16.6562 5.14423C16.1562 5.14423 15.6562 4.62981 15.6562 4.11538C15.6562 3.60096 16.1562 3.08654 16.6562 3.08654ZM15.6562 10.2885C15.6562 7.45141 13.4137 5.14423 10.6562 5.14423C7.89875 5.14423 5.65625 7.45141 5.65625 10.2885C5.65625 13.1255 7.89875 15.4327 10.6562 15.4327C13.4137 15.4327 15.6562 13.1255 15.6562 10.2885ZM10.6562 7.20192C8.9994 7.20192 7.65625 8.58381 7.65625 10.2885C7.65625 11.9931 8.9994 13.375 10.6562 13.375C12.3131 13.375 13.6562 11.9931 13.6562 10.2885C13.6562 8.58381 12.3131 7.20192 10.6562 7.20192Z" fill="#009379"/>
</svg>
