<svg width="52" height="52" viewBox="0 0 52 52" fill="none" xmlns="http://www.w3.org/2000/svg">
<path d="M0 26C0 20.4219 0 17.6328 0.552601 15.3311C2.30829 8.01812 8.01812 2.30829 15.3311 0.552601C17.6328 0 20.4219 0 26 0C31.5781 0 34.3672 0 36.6689 0.552601C43.9819 2.30829 49.6917 8.01812 51.4474 15.3311C52 17.6328 52 20.4219 52 26C52 31.5781 52 34.3672 51.4474 36.6689C49.6917 43.9819 43.9819 49.6917 36.6689 51.4474C34.3672 52 31.5781 52 26 52C20.4219 52 17.6328 52 15.3311 51.4474C8.01812 49.6917 2.30829 43.9819 0.552601 36.6689C0 34.3672 0 31.5781 0 26Z" fill="#E5F4F2"/>
<path d="M26.5167 33.3418C26.2334 33.4418 25.7667 33.4418 25.4834 33.3418C23.0667 32.5168 17.6667 29.0752 17.6667 23.2418C17.6667 20.6668 19.7417 18.5835 22.3 18.5835C23.8167 18.5835 25.1584 19.3168 26 20.4502C26.8417 19.3168 28.1917 18.5835 29.7 18.5835C32.2584 18.5835 34.3334 20.6668 34.3334 23.2418C34.3334 29.0752 28.9334 32.5168 26.5167 33.3418Z" stroke="#009379" stroke-width="2" stroke-linecap="round" stroke-linejoin="round"/>
</svg>
