<svg width="32" height="33" viewBox="0 0 32 33" fill="none" xmlns="http://www.w3.org/2000/svg">
<path d="M0 16.0845C0 7.24792 7.16344 0.0844727 16 0.0844727C24.8366 0.0844727 32 7.24792 32 16.0845C32 24.921 24.8366 32.0845 16 32.0845C7.16344 32.0845 0 24.921 0 16.0845Z" fill="#14AE82" fill-opacity="0.05"/>
<path d="M16.5167 23.4263C16.2334 23.5263 15.7667 23.5263 15.4834 23.4263C13.0667 22.6013 7.66675 19.1596 7.66675 13.3263C7.66675 10.7513 9.74175 8.66797 12.3001 8.66797C13.8167 8.66797 15.1584 9.4013 16.0001 10.5346C16.8417 9.4013 18.1917 8.66797 19.7001 8.66797C22.2584 8.66797 24.3334 10.7513 24.3334 13.3263C24.3334 19.1596 18.9334 22.6013 16.5167 23.4263Z" stroke="#009379" stroke-width="2" stroke-linecap="round" stroke-linejoin="round"/>
</svg>
