<svg width="21" height="21" viewBox="0 0 21 21" fill="none" xmlns="http://www.w3.org/2000/svg">
<path fill-rule="evenodd" clip-rule="evenodd" d="M18.6562 0H2.65625C1.55168 0 0.65625 0.92126 0.65625 2.05769V18.5192C0.65625 19.6557 1.55168 20.5769 2.65625 20.5769H18.6562C19.7608 20.5769 20.6562 19.6557 20.6562 18.5192V2.05769C20.6562 0.92126 19.7608 0 18.6562 0ZM4.65625 4.69569C4.65625 5.58405 5.35657 6.30578 6.22262 6.30578C7.08595 6.30578 7.78809 5.58405 7.78809 4.69569C7.78809 3.80827 7.08595 3.08654 6.22262 3.08654C5.35748 3.08654 4.65625 3.80733 4.65625 4.69569ZM4.90625 16.4617H7.59276V7.57628H4.90625V16.4617ZM17.6566 16.4615H14.9719V12.1404C14.9719 11.1098 14.9537 9.78427 13.5758 9.78427C12.1779 9.78427 11.963 10.9067 11.963 12.0655V16.4615H9.27832V7.57601H11.8556V8.79013H11.892C12.2508 8.0918 13.1269 7.35509 14.4337 7.35509C17.1539 7.35509 17.6566 9.19546 17.6566 11.5881V16.4615Z" fill="#009379"/>
</svg>
