<svg width="20" height="19" viewBox="0 0 20 19" fill="none" xmlns="http://www.w3.org/2000/svg">
<g clip-path="url(#clip0_11_2081)">
<path d="M3.70656 8.57473C3.78395 8.57473 3.86076 8.57473 3.93814 8.57473C6.44573 8.57473 8.95332 8.57356 11.4609 8.57532C12.0477 8.5759 12.4554 8.97532 12.4444 9.52795C12.4352 9.9993 12.0731 10.3911 11.6088 10.4291C11.5158 10.4367 11.4216 10.4356 11.3281 10.4356C8.8638 10.4361 6.39953 10.4356 3.93526 10.4356C3.85844 10.4356 3.78221 10.4356 3.6592 10.4356C3.73024 10.518 3.7672 10.5671 3.80993 10.6104C4.14027 10.9467 4.47466 11.2782 4.80211 11.6174C5.1902 12.0198 5.19944 12.597 4.82983 12.9677C4.46022 13.3391 3.88848 13.3285 3.49519 12.9332C2.59599 12.028 1.6991 11.1203 0.805102 10.2098C0.378315 9.77532 0.380625 9.23204 0.809722 8.7952C1.6991 7.88994 2.59021 6.98701 3.48479 6.08701C3.89079 5.67883 4.4608 5.66596 4.83388 6.04549C5.20638 6.42503 5.18905 6.99579 4.78479 7.41216C4.42153 7.78585 4.05134 8.15251 3.68461 8.5221C3.69039 8.53965 3.69847 8.55719 3.70656 8.57473Z" fill="white"/>
<path d="M18.9126 14.0537C18.9138 10.6022 18.9161 7.15077 18.9121 3.69931C18.9097 1.69872 17.4631 0.163636 15.533 0.156034C13.8409 0.149601 11.1352 0.146093 8.86438 0.145508C8.35559 0.145508 7.94324 0.563052 7.94324 1.07884V1.0841C7.94324 1.59931 8.35501 2.01744 8.86438 2.01744C11.1196 2.01744 13.8033 2.01802 15.4781 2.01919C16.3871 2.01978 17.0657 2.70282 17.0669 3.62504C17.0709 7.54317 17.0709 11.4619 17.0669 15.3806C17.0657 16.3016 16.3848 16.9829 15.4752 16.9835C13.8016 16.9847 11.1196 16.9853 8.86496 16.9853C8.35616 16.9853 7.94381 17.4028 7.94381 17.9186C7.94381 18.4338 8.35559 18.8514 8.86438 18.8519C11.1179 18.8525 13.7987 18.8554 15.4706 18.8508C17.3262 18.8455 18.7723 17.4812 18.8976 15.6075C18.9317 15.0917 18.9126 14.5718 18.9126 14.0537Z" fill="white"/>
</g>
<defs>
<clipPath id="clip0_11_2081">
<rect width="18.882" height="19" fill="white" transform="translate(0.180176)"/>
</clipPath>
</defs>
</svg>
