<svg width="72" height="72" viewBox="0 0 72 72" fill="none" xmlns="http://www.w3.org/2000/svg">
<path d="M0 36C0 21.0011 0 13.5016 3.81966 8.2443C5.05325 6.5464 6.5464 5.05325 8.2443 3.81966C13.5016 0 21.0011 0 36 0C50.9989 0 58.4984 0 63.7557 3.81966C65.4536 5.05325 66.9467 6.5464 68.1803 8.2443C72 13.5016 72 21.0011 72 36C72 50.9989 72 58.4984 68.1803 63.7557C66.9467 65.4536 65.4536 66.9467 63.7557 68.1803C58.4984 72 50.9989 72 36 72C21.0011 72 13.5016 72 8.2443 68.1803C6.5464 66.9467 5.05325 65.4536 3.81966 63.7557C0 58.4984 0 50.9989 0 36Z" fill="#FF6250" fill-opacity="0.2"/>
<path opacity="0.2" d="M41.25 50.4375L30.75 45.1875V21.5625L41.25 26.8125V50.4375Z" fill="#009379"/>
<path d="M30.75 45.1875L20.25 47.8125V24.1875L30.75 21.5625" stroke="#009379" stroke-width="2" stroke-linecap="round" stroke-linejoin="round"/>
<path d="M41.25 50.4375L30.75 45.1875V21.5625L41.25 26.8125V50.4375Z" stroke="#009379" stroke-width="2" stroke-linecap="round" stroke-linejoin="round"/>
<path d="M41.25 26.8125L51.75 24.1875V47.8125L41.25 50.4375" stroke="#009379" stroke-width="2" stroke-linecap="round" stroke-linejoin="round"/>
</svg>
