<svg width="33" height="32" viewBox="0 0 33 32" fill="none" xmlns="http://www.w3.org/2000/svg">
<path opacity="0.2" d="M16.4521 3C13.8 3 11.2564 4.05357 9.38108 5.92893C7.50572 7.8043 6.45215 10.3478 6.45215 13C6.45215 22 16.4521 29 16.4521 29C16.4521 29 26.4521 22 26.4521 13C26.4521 10.3478 25.3986 7.8043 23.5232 5.92893C21.6479 4.05357 19.1043 3 16.4521 3ZM16.4521 17C15.661 17 14.8877 16.7654 14.2299 16.3259C13.5721 15.8864 13.0594 15.2616 12.7566 14.5307C12.4539 13.7998 12.3747 12.9956 12.529 12.2196C12.6833 11.4437 13.0643 10.731 13.6237 10.1716C14.1831 9.61216 14.8959 9.2312 15.6718 9.07686C16.4477 8.92252 17.252 9.00173 17.9829 9.30448C18.7138 9.60723 19.3385 10.1199 19.778 10.7777C20.2176 11.4355 20.4521 12.2089 20.4521 13C20.4521 14.0609 20.0307 15.0783 19.2806 15.8284C18.5304 16.5786 17.513 17 16.4521 17Z" fill="#009379"/>
<path d="M7.45215 29H25.4521" stroke="#009379" stroke-width="2" stroke-linecap="round" stroke-linejoin="round"/>
<path d="M16.4521 17C18.6613 17 20.4521 15.2091 20.4521 13C20.4521 10.7909 18.6613 9 16.4521 9C14.243 9 12.4521 10.7909 12.4521 13C12.4521 15.2091 14.243 17 16.4521 17Z" stroke="#009379" stroke-width="2" stroke-linecap="round" stroke-linejoin="round"/>
<path d="M26.4521 13C26.4521 22 16.4521 29 16.4521 29C16.4521 29 6.45215 22 6.45215 13C6.45215 10.3478 7.50572 7.8043 9.38108 5.92893C11.2564 4.05357 13.8 3 16.4521 3C19.1043 3 21.6479 4.05357 23.5232 5.92893C25.3986 7.8043 26.4521 10.3478 26.4521 13V13Z" stroke="#009379" stroke-width="2" stroke-linecap="round" stroke-linejoin="round"/>
</svg>
