<svg width="28" height="18" viewBox="0 0 28 18" fill="none" xmlns="http://www.w3.org/2000/svg">
<path d="M2.29195 18C1.86959 18 1.5158 17.856 1.23059 17.568C0.944375 17.281 0.80127 16.925 0.80127 16.5C0.80127 16.075 0.944375 15.719 1.23059 15.432C1.5158 15.144 1.86959 15 2.29195 15H23.1615C23.5839 15 23.9377 15.144 24.2229 15.432C24.5091 15.719 24.6522 16.075 24.6522 16.5C24.6522 16.925 24.5091 17.281 24.2229 17.568C23.9377 17.856 23.5839 18 23.1615 18H2.29195ZM2.29195 10.5C1.86959 10.5 1.5158 10.356 1.23059 10.068C0.944375 9.781 0.80127 9.425 0.80127 9C0.80127 8.575 0.944375 8.2185 1.23059 7.9305C1.5158 7.6435 1.86959 7.5 2.29195 7.5H15.7081C16.1305 7.5 16.4843 7.6435 16.7695 7.9305C17.0557 8.2185 17.1988 8.575 17.1988 9C17.1988 9.425 17.0557 9.781 16.7695 10.068C16.4843 10.356 16.1305 10.5 15.7081 10.5H2.29195ZM2.29195 3C1.86959 3 1.5158 2.8565 1.23059 2.5695C0.944375 2.2815 0.80127 1.925 0.80127 1.5C0.80127 1.075 0.944375 0.7185 1.23059 0.4305C1.5158 0.1435 1.86959 0 2.29195 0H26.1429C26.5652 0 26.919 0.1435 27.2043 0.4305C27.4905 0.7185 27.6336 1.075 27.6336 1.5C27.6336 1.925 27.4905 2.2815 27.2043 2.5695C26.919 2.8565 26.5652 3 26.1429 3H2.29195Z" fill="white"/>
</svg>
