<svg width="24" height="25" viewBox="0 0 24 25" fill="none" xmlns="http://www.w3.org/2000/svg">
<path d="M17 19.3594H13L8.54999 22.3194C7.88999 22.7594 7 22.2894 7 21.4894V19.3594C4 19.3594 2 17.3594 2 14.3594V8.35938C2 5.35938 4 3.35938 7 3.35938H17C20 3.35938 22 5.35938 22 8.35938V14.3594C22 17.3594 20 19.3594 17 19.3594Z" stroke="#009379" stroke-width="1.5" stroke-miterlimit="10" stroke-linecap="round" stroke-linejoin="round"/>
<path opacity="0.4" d="M11.9998 12.2891V12.0791C11.9998 11.3991 12.4198 11.0391 12.8398 10.7491C13.2498 10.4691 13.6598 10.1091 13.6598 9.4491C13.6598 8.5291 12.9198 7.78906 11.9998 7.78906C11.0798 7.78906 10.3398 8.5291 10.3398 9.4491" stroke="#009379" stroke-width="1.5" stroke-linecap="round" stroke-linejoin="round"/>
<path opacity="0.4" d="M11.9955 14.6792H12.0045" stroke="#009379" stroke-width="1.5" stroke-linecap="round" stroke-linejoin="round"/>
</svg>
