<svg width="31" height="30" viewBox="0 0 31 30" fill="none" xmlns="http://www.w3.org/2000/svg">
<path opacity="0.4" d="M24.0512 21.0375L24.5387 24.9875C24.6637 26.025 23.5512 26.75 22.6637 26.2125L17.4262 23.1C16.8512 23.1 16.2887 23.0625 15.7387 22.9875C16.6637 21.9 17.2137 20.525 17.2137 19.0375C17.2137 15.4875 14.1387 12.6125 10.3387 12.6125C8.88868 12.6125 7.55118 13.025 6.43868 13.75C6.40118 13.4375 6.38867 13.125 6.38867 12.8C6.38867 7.11249 11.3262 2.5 17.4262 2.5C23.5262 2.5 28.4637 7.11249 28.4637 12.8C28.4637 16.175 26.7262 19.1625 24.0512 21.0375Z" stroke="#009379" stroke-width="1.5" stroke-linecap="round" stroke-linejoin="round"/>
<path d="M17.2139 19.0372C17.2139 20.5247 16.6639 21.8998 15.7389 22.9873C14.5014 24.4873 12.5389 25.4498 10.3389 25.4498L7.07637 27.3872C6.52637 27.7247 5.82636 27.2623 5.90136 26.6248L6.21386 24.1623C4.53886 22.9998 3.46387 21.1372 3.46387 19.0372C3.46387 16.8372 4.63887 14.8998 6.43887 13.7498C7.55137 13.0248 8.88887 12.6123 10.3389 12.6123C14.1389 12.6123 17.2139 15.4872 17.2139 19.0372Z" stroke="#009379" stroke-width="1.5" stroke-linecap="round" stroke-linejoin="round"/>
</svg>
