<svg width="24" height="24" viewBox="0 0 24 24" fill="none" xmlns="http://www.w3.org/2000/svg">
<path d="M0 12C0 5.37258 5.37258 0 12 0C18.6274 0 24 5.37258 24 12C24 18.6274 18.6274 24 12 24C5.37258 24 0 18.6274 0 12Z" fill="#E5F4F2"/>
<path opacity="0.34" d="M8.66602 12H15.3327" stroke="#009379" stroke-width="1.5" stroke-linecap="round" stroke-linejoin="round"/>
<path d="M9.49935 20.3332H14.4993C18.666 20.3332 20.3327 18.6665 20.3327 14.4998V9.49984C20.3327 5.33317 18.666 3.6665 14.4993 3.6665H9.49935C5.33268 3.6665 3.66602 5.33317 3.66602 9.49984V14.4998C3.66602 18.6665 5.33268 20.3332 9.49935 20.3332Z" stroke="#009379" stroke-width="1.5" stroke-linecap="round" stroke-linejoin="round"/>
</svg>
