<svg width="72" height="72" viewBox="0 0 72 72" fill="none" xmlns="http://www.w3.org/2000/svg">
<path d="M0 36C0 21.0011 0 13.5016 3.81966 8.2443C5.05325 6.5464 6.5464 5.05325 8.2443 3.81966C13.5016 0 21.0011 0 36 0C50.9989 0 58.4984 0 63.7557 3.81966C65.4536 5.05325 66.9467 6.5464 68.1803 8.2443C72 13.5016 72 21.0011 72 36C72 50.9989 72 58.4984 68.1803 63.7557C66.9467 65.4536 65.4536 66.9467 63.7557 68.1803C58.4984 72 50.9989 72 36 72C21.0011 72 13.5016 72 8.2443 68.1803C6.5464 66.9467 5.05325 65.4536 3.81966 63.7557C0 58.4984 0 50.9989 0 36Z" fill="#FF6250" fill-opacity="0.2"/>
<g opacity="0.4">
<path d="M30.1758 40.0772C30.1758 42.3347 31.9083 44.1547 34.0608 44.1547H38.4533C40.3258 44.1547 41.8483 42.5622 41.8483 40.6022C41.8483 38.4672 40.9208 37.7147 39.5383 37.2247L32.4858 34.7747C31.1033 34.2847 30.1758 33.5322 30.1758 31.3972C30.1758 29.4372 31.6983 27.8447 33.5708 27.8447H37.9633C40.1158 27.8447 41.8483 29.6647 41.8483 31.9222" stroke="#009379" stroke-width="2" stroke-linecap="round" stroke-linejoin="round"/>
<path d="M36 25.5V46.5V25.5Z" fill="#009379"/>
<path d="M36 25.5V46.5" stroke="#009379" stroke-width="1.5" stroke-linecap="round" stroke-linejoin="round"/>
</g>
<path d="M36 53.5C45.665 53.5 53.5 45.665 53.5 36C53.5 26.335 45.665 18.5 36 18.5C26.335 18.5 18.5 26.335 18.5 36C18.5 45.665 26.335 53.5 36 53.5Z" stroke="#009379" stroke-width="2" stroke-linecap="round" stroke-linejoin="round"/>
</svg>
