<svg width="72" height="72" viewBox="0 0 72 72" fill="none" xmlns="http://www.w3.org/2000/svg">
<g clip-path="url(#clip0_123_7)">
<path d="M0 36C0 21.0011 0 13.5016 3.81966 8.2443C5.05325 6.5464 6.5464 5.05325 8.2443 3.81966C13.5016 0 21.0011 0 36 0C50.9989 0 58.4984 0 63.7557 3.81966C65.4536 5.05325 66.9467 6.5464 68.1803 8.2443C72 13.5016 72 21.0011 72 36C72 50.9989 72 58.4984 68.1803 63.7557C66.9467 65.4536 65.4536 66.9467 63.7557 68.1803C58.4984 72 50.9989 72 36 72C21.0011 72 13.5016 72 8.2443 68.1803C6.5464 66.9467 5.05325 65.4536 3.81966 63.7557C0 58.4984 0 50.9989 0 36Z" fill="#FF6250" fill-opacity="0.2"/>
<path d="M36 51C44.2843 51 51 44.2843 51 36C51 27.7157 44.2843 21 36 21C27.7157 21 21 27.7157 21 36C21 44.2843 27.7157 51 36 51Z" stroke="#009379" stroke-width="2" stroke-linecap="round" stroke-linejoin="round"/>
<path opacity="0.4" d="M36 39C37.6569 39 39 37.6569 39 36C39 34.3431 37.6569 33 36 33C34.3431 33 33 34.3431 33 36C33 37.6569 34.3431 39 36 39Z" fill="#009379" stroke="#009379" stroke-width="2" stroke-linecap="round" stroke-linejoin="round"/>
</g>
<defs>
<clipPath id="clip0_123_7">
<rect width="72" height="72" fill="white"/>
</clipPath>
</defs>
</svg>
