<svg width="16" height="16" viewBox="0 0 16 16" fill="none" xmlns="http://www.w3.org/2000/svg">
<path d="M5.88125 11.5375C5.16875 13.6563 2.34375 13.6563 2.34375 13.6563C2.34375 13.6563 2.34375 10.8313 4.4625 10.1188" stroke="#F8F9FF" stroke-width="1.5" stroke-linecap="round" stroke-linejoin="round"/>
<path d="M12.2437 6.58749L7.99995 10.8312L5.1687 7.99999L9.41245 3.75624C11.0187 2.14999 12.625 2.16874 13.3125 2.26874C13.4185 2.28289 13.517 2.33156 13.5927 2.40724C13.6684 2.48292 13.717 2.5814 13.7312 2.68749C13.8312 3.37499 13.85 4.98124 12.2437 6.58749Z" stroke="#F8F9FF" stroke-width="1.5" stroke-linecap="round" stroke-linejoin="round"/>
<path d="M11.5375 7.29376V11.3313C11.5356 11.4631 11.4817 11.5889 11.3875 11.6813L9.36875 13.7063C9.3047 13.7702 9.22449 13.8156 9.13667 13.8376C9.04885 13.8595 8.95672 13.8572 8.8701 13.8309C8.78349 13.8046 8.70563 13.7553 8.64486 13.6882C8.58408 13.6211 8.54265 13.5388 8.525 13.45L8 10.8313" stroke="#F8F9FF" stroke-width="1.5" stroke-linecap="round" stroke-linejoin="round"/>
<path d="M8.7062 4.46252H4.6687C4.53682 4.4644 4.41102 4.51832 4.3187 4.61252L2.2937 6.63127C2.22973 6.69532 2.18435 6.77553 2.16239 6.86335C2.14043 6.95117 2.14273 7.04331 2.16904 7.12992C2.19534 7.21654 2.24467 7.29439 2.31176 7.35517C2.37884 7.41595 2.46117 7.45737 2.54995 7.47502L5.1687 8.00002" stroke="#F8F9FF" stroke-width="1.5" stroke-linecap="round" stroke-linejoin="round"/>
</svg>
