<svg width="53" height="60" viewBox="0 0 53 60" fill="none" xmlns="http://www.w3.org/2000/svg">
<path d="M0.952148 26C0.952148 20.4219 0.952148 17.6328 1.50475 15.3311C3.26044 8.01812 8.97026 2.30829 16.2832 0.552601C18.585 0 21.374 0 26.9521 0C32.5303 0 35.3193 0 37.6211 0.552601C44.934 2.30829 50.6439 8.01812 52.3995 15.3311C52.9521 17.6328 52.9521 20.4219 52.9521 26V34C52.9521 39.5781 52.9521 42.3672 52.3995 44.6689C50.6439 51.9819 44.934 57.6917 37.6211 59.4474C35.3193 60 32.5303 60 26.9521 60C21.374 60 18.585 60 16.2832 59.4474C8.97026 57.6917 3.26044 51.9819 1.50475 44.6689C0.952148 42.3672 0.952148 39.5781 0.952148 34V26Z" fill="#E5F4F2"/>
<path d="M26.1187 36.6667C30.2608 36.6667 33.6187 33.3088 33.6187 29.1667C33.6187 25.0246 30.2608 21.6667 26.1187 21.6667C21.9765 21.6667 18.6187 25.0246 18.6187 29.1667C18.6187 33.3088 21.9765 36.6667 26.1187 36.6667Z" stroke="#009379" stroke-width="2" stroke-linecap="round" stroke-linejoin="round"/>
<path opacity="0.4" d="M32.7272 37.2415C33.1688 38.5749 34.1772 38.7082 34.9522 37.5415C35.6605 36.4749 35.1938 35.5999 33.9105 35.5999C32.9605 35.5915 32.4272 36.3332 32.7272 37.2415Z" stroke="#009379" stroke-width="2" stroke-linecap="round" stroke-linejoin="round"/>
</svg>
