<svg width="26" height="26" viewBox="0 0 26 26" fill="none" xmlns="http://www.w3.org/2000/svg">
<path d="M13.5077 20.6979L19.3226 24.39C20.0725 24.863 20.9956 24.1592 20.7763 23.2939L19.0919 16.6713C19.0463 16.4877 19.0535 16.295 19.1127 16.1154C19.1719 15.9358 19.2807 15.7765 19.4264 15.656L24.6414 11.3063C25.3222 10.741 24.976 9.59877 24.0876 9.54108L17.2804 9.10265C17.0947 9.09184 16.9161 9.02717 16.7666 8.91652C16.617 8.80588 16.5029 8.65406 16.4382 8.47962L13.8999 2.08779C13.8327 1.90308 13.7103 1.74351 13.5493 1.63076C13.3883 1.518 13.1966 1.45752 13 1.45752C12.8034 1.45752 12.6117 1.518 12.4507 1.63076C12.2897 1.74351 12.1673 1.90308 12.1001 2.08779L9.56179 8.47962C9.4971 8.65406 9.383 8.80588 9.23343 8.91652C9.08385 9.02717 8.90529 9.09184 8.71955 9.10265L1.91237 9.54108C1.02397 9.59877 0.677844 10.741 1.35856 11.3063L6.57356 15.656C6.71932 15.7765 6.82806 15.9358 6.88726 16.1154C6.94645 16.295 6.9537 16.4877 6.90815 16.6713L5.35057 22.8093C5.08521 23.8477 6.19282 24.6899 7.08121 24.1246L12.4923 20.6979C12.6441 20.6014 12.8202 20.5502 13 20.5502C13.1798 20.5502 13.3559 20.6014 13.5077 20.6979Z" fill="#FFC0B8" stroke="#FFC0B8" stroke-width="2" stroke-linecap="round" stroke-linejoin="round"/>
</svg>
