<svg width="20" height="21" viewBox="0 0 20 21" fill="none" xmlns="http://www.w3.org/2000/svg">
<path d="M17.5 5.91276C14.725 5.63776 11.9333 5.49609 9.15 5.49609C7.5 5.49609 5.85 5.57943 4.2 5.74609L2.5 5.91276" stroke="#009379" stroke-width="1.5" stroke-linecap="round" stroke-linejoin="round"/>
<path opacity="0.34" d="M7.08398 5.0707L7.26732 3.97904C7.40065 3.18737 7.50065 2.5957 8.90898 2.5957H11.0923C12.5007 2.5957 12.609 3.2207 12.734 3.98737L12.9173 5.0707" stroke="#009379" stroke-width="1.5" stroke-linecap="round" stroke-linejoin="round"/>
<path d="M15.7077 8.5459L15.166 16.9376C15.0743 18.2459 14.9993 19.2626 12.6743 19.2626H7.32435C4.99935 19.2626 4.92435 18.2459 4.83268 16.9376L4.29102 8.5459" stroke="#009379" stroke-width="1.5" stroke-linecap="round" stroke-linejoin="round"/>
<path opacity="0.34" d="M8.60742 14.6792H11.3824" stroke="#009379" stroke-width="1.5" stroke-linecap="round" stroke-linejoin="round"/>
<path opacity="0.34" d="M7.91602 11.3457H12.0827" stroke="#009379" stroke-width="1.5" stroke-linecap="round" stroke-linejoin="round"/>
</svg>
