<svg width="21" height="21" viewBox="0 0 21 21" fill="none" xmlns="http://www.w3.org/2000/svg">
<path fill-rule="evenodd" clip-rule="evenodd" d="M18.6562 0H2.65625C1.55168 0 0.65625 0.92126 0.65625 2.05769V18.5192C0.65625 19.6557 1.55168 20.5769 2.65625 20.5769H18.6562C19.7608 20.5769 20.6562 19.6557 20.6562 18.5192V2.05769C20.6562 0.92126 19.7608 0 18.6562 0ZM16.0065 6.41934C16.5874 6.35024 17.141 6.19705 17.6562 5.96941C17.2713 6.542 16.784 7.04496 16.2224 7.44828C16.2278 7.57094 16.2305 7.69414 16.2305 7.81787C16.2305 11.5935 13.3423 15.9471 8.05908 15.9471C6.43676 15.9471 4.92751 15.4741 3.65625 14.6637C3.88132 14.6905 4.11016 14.7039 4.34169 14.7039C5.68779 14.7039 6.9262 14.247 7.90886 13.4805C6.65213 13.4575 5.59141 12.631 5.22581 11.496C5.4008 11.5287 5.58118 11.5469 5.76586 11.5469C6.02808 11.5469 6.28223 11.5121 6.52291 11.4468C5.20857 11.1848 4.21892 10.03 4.21892 8.64541V8.60953C4.60606 8.82324 5.0492 8.95179 5.51979 8.96679C4.74928 8.45473 4.24261 7.58005 4.24261 6.58914C4.24261 6.06475 4.38422 5.57412 4.63083 5.15204C6.048 6.88105 8.16408 8.01873 10.551 8.13764C10.5025 7.92928 10.4767 7.71074 10.4767 7.48685C10.4767 5.90942 11.7625 4.62981 13.3487 4.62981C14.1747 4.62981 14.921 4.97689 15.4449 5.53234C16.0996 5.40379 16.7145 5.16597 17.2691 4.8387C17.0548 5.50609 16.5998 6.06583 16.0065 6.41934Z" fill="#009379"/>
</svg>
