<svg width="21" height="18" viewBox="0 0 21 18" fill="none" xmlns="http://www.w3.org/2000/svg">
<path d="M20.5404 6.76366C20.5409 6.48345 20.4698 6.20812 20.3346 5.96567C20.1993 5.72322 20.0046 5.5223 19.7704 5.38333L11.3988 0.223238C11.1575 0.0770378 10.8832 0 10.6039 0C10.3246 0 10.0502 0.0770378 9.80896 0.223238L1.42498 5.38333C1.1933 5.52611 1.00138 5.72905 0.868074 5.97219C0.73477 6.21533 0.664673 6.49031 0.664673 6.77011C0.664673 7.04991 0.73477 7.32489 0.868074 7.56803C1.00138 7.81117 1.1933 8.01411 1.42498 8.15689L3.80976 9.60171V13.2267C3.81119 13.51 3.88279 13.7881 4.01765 14.0344C4.15252 14.2807 4.34612 14.4867 4.57984 14.6328L9.85864 17.7934C10.0943 17.9289 10.3593 18 10.6287 18C10.8981 18 11.1631 17.9289 11.3988 17.7934L16.6776 14.6328C16.9113 14.4867 17.1049 14.2807 17.2398 14.0344C17.3747 13.7881 17.4463 13.51 17.4477 13.2267V9.56301L18.9879 8.62129V12.1302H20.5404V6.76366ZM15.9075 13.2138L10.6039 16.3872L5.36235 13.2267V10.5563L9.80896 13.3041C10.0511 13.4478 10.3251 13.5233 10.6039 13.5233C10.8827 13.5233 11.1567 13.4478 11.3988 13.3041L15.8951 10.5176L15.9075 13.2138ZM10.6039 11.9109L2.21991 6.75076L10.6039 1.57776L18.9879 6.73786L10.6039 11.9109Z" fill="white"/>
</svg>
