<svg width="39" height="38" viewBox="0 0 39 38" fill="none" xmlns="http://www.w3.org/2000/svg">
<path d="M19.5488 0C15.791 0 12.1175 1.11433 8.993 3.20208C5.86847 5.28982 3.43319 8.25722 1.99513 11.729C0.557061 15.2008 0.180797 19.0211 0.913916 22.7067C1.64704 26.3923 3.45661 29.7778 6.11381 32.435C8.771 35.0922 12.1565 36.9018 15.8421 37.6349C19.5278 38.368 23.348 37.9918 26.8198 36.5537C30.2916 35.1156 33.259 32.6804 35.3467 29.5558C37.4345 26.4313 38.5488 22.7578 38.5488 19C38.5488 16.5049 38.0574 14.0342 37.1025 11.729C36.1477 9.42383 34.7482 7.32928 32.9839 5.56497C31.2195 3.80066 29.125 2.40113 26.8198 1.44629C24.5146 0.491449 22.0439 0 19.5488 0ZM24.6978 21.451C24.8759 21.6276 25.0173 21.8378 25.1137 22.0693C25.2102 22.3008 25.2598 22.5492 25.2598 22.8C25.2598 23.0508 25.2102 23.2992 25.1137 23.5307C25.0173 23.7622 24.8759 23.9724 24.6978 24.149C24.5212 24.3271 24.3111 24.4684 24.0795 24.5649C23.848 24.6613 23.5997 24.711 23.3488 24.711C23.098 24.711 22.8497 24.6613 22.6181 24.5649C22.3866 24.4684 22.1765 24.3271 21.9998 24.149L19.5488 21.679L17.0978 24.149C16.9212 24.3271 16.7111 24.4684 16.4795 24.5649C16.248 24.6613 15.9997 24.711 15.7488 24.711C15.498 24.711 15.2497 24.6613 15.0181 24.5649C14.7866 24.4684 14.5765 24.3271 14.3998 24.149C14.2217 23.9724 14.0804 23.7622 13.9839 23.5307C13.8875 23.2992 13.8378 23.0508 13.8378 22.8C13.8378 22.5492 13.8875 22.3008 13.9839 22.0693C14.0804 21.8378 14.2217 21.6276 14.3998 21.451L16.8698 19L14.3998 16.549C14.0421 16.1912 13.8411 15.706 13.8411 15.2C13.8411 14.694 14.0421 14.2088 14.3998 13.851C14.7576 13.4932 15.2429 13.2922 15.7488 13.2922C16.2548 13.2922 16.7401 13.4932 17.0978 13.851L19.5488 16.321L21.9998 13.851C22.3576 13.4932 22.8429 13.2922 23.3488 13.2922C23.8548 13.2922 24.3401 13.4932 24.6978 13.851C25.0556 14.2088 25.2566 14.694 25.2566 15.2C25.2566 15.706 25.0556 16.1912 24.6978 16.549L22.2278 19L24.6978 21.451Z" fill="#2D2D2D"/>
</svg>
