<svg width="357" height="69" viewBox="0 0 357 69" fill="none" xmlns="http://www.w3.org/2000/svg">
<path d="M199.316 14.8346C197.34 15.8226 196.352 17.4528 196.352 19.7746C196.352 23.2325 198.427 25.2579 201.934 25.3073C203.91 25.3073 204.552 25.0603 205.738 23.9241C208.603 21.059 207.961 16.119 204.552 14.6864C202.28 13.7478 201.44 13.7478 199.316 14.8346Z" fill="#019379"/>
<path d="M106.198 17.0576C106 17.6998 105.951 26.4435 106.049 36.4716L106.198 54.7001L107.778 57.911C109.557 61.5172 112.669 64.9258 115.435 66.3583C116.473 66.9017 118.844 67.6427 120.77 68.0379C134.158 70.8537 144.779 64.9752 146.952 53.4651C147.496 50.6987 147.644 18.0456 147.15 16.7118C146.705 15.5262 137.813 15.5262 137.369 16.7118C137.221 17.1564 137.072 25.2085 137.072 34.6933C137.072 45.6599 136.875 52.4277 136.529 53.3169C135.936 54.9965 133.812 57.2688 132.132 58.158C128.724 59.887 122.401 59.393 119.437 57.1206C116.078 54.5519 116.127 54.6507 115.831 34.4463L115.584 16.1684L111.039 16.0202C106.593 15.872 106.445 15.9214 106.198 17.0576Z" fill="#019379"/>
<path d="M215.667 16.86C215.074 17.8974 214.877 64.6294 215.42 66.6548C215.716 67.7416 215.963 67.791 220.311 67.791C224.015 67.791 224.954 67.6428 225.201 67.0006C225.349 66.556 225.497 62.357 225.497 57.6147V49.0191H228.857H232.166L237.749 58.405L243.331 67.791H248.962C253.161 67.791 254.643 67.6428 254.643 67.1488C254.643 66.8524 251.976 62.5546 248.715 57.7134C245.455 52.8229 242.787 48.6733 242.787 48.5251C242.787 48.3275 243.627 47.7347 244.714 47.142C249.555 44.425 252.667 38.7934 252.667 32.8161C252.667 25.258 249.802 20.4662 243.528 17.5516C240.564 16.1684 240.564 16.1684 228.363 16.0202C216.606 15.872 216.161 15.872 215.667 16.86ZM237.847 24.8134C238.786 25.1592 240.07 25.9496 240.663 26.5917C242.046 28.0737 242.935 32.3715 242.343 34.8415C241.207 39.5344 238.885 40.8188 230.833 41.0164L225.003 41.214V32.8655C225.003 28.2219 225.152 24.3194 225.399 24.1218C225.893 23.529 235.773 24.1218 237.847 24.8134Z" fill="#019379"/>
<path d="M299.35 19.9722C299.202 20.318 299.053 22.5904 299.004 25.0603L298.856 29.5063L296.04 29.6545C292.73 29.8027 292.533 30.1979 292.78 34.7427L292.928 37.4102L295.645 37.6572L298.362 37.9042L298.609 49.0191C298.856 58.4544 299.004 60.4304 299.794 62.0112C300.832 64.086 303.055 66.1608 305.377 67.1487C307.451 67.9885 317.43 68.0379 318.27 67.1981C318.912 66.556 319.06 60.9738 318.467 60.0846C318.27 59.7882 316.64 59.5412 314.565 59.5906C311.453 59.64 310.86 59.4918 309.872 58.5038C308.785 57.4664 308.736 56.9724 308.538 49.2167C308.489 44.7214 308.538 40.3248 308.686 39.3862L309.032 37.6572H313.33C316.047 37.6572 317.875 37.4596 318.27 37.0644C318.912 36.4222 318.961 33.2607 318.418 31.2353C318.072 30.0497 317.875 30.0003 313.429 29.7533L308.736 29.5063L308.587 25.1097C308.489 22.6398 308.192 20.3674 307.896 20.0216C307.204 19.1324 299.646 19.1324 299.35 19.9722Z" fill="#019379"/>
<path d="M271.686 29.1111C266.549 29.7533 262.251 31.9269 260.818 34.6933C259.583 37.1138 259.83 37.8548 262.547 39.1392L265.017 40.2754L267.339 38.6452C272.674 34.7921 279.837 36.9657 280.43 42.5972L280.578 44.3262L274.403 44.6226C265.462 45.1166 261.954 46.5986 259.04 51.3409C258.052 52.9217 257.854 53.8603 257.854 57.4171C257.854 61.369 257.953 61.7642 259.435 63.9378C263.486 69.7175 273.909 70.4091 279.343 65.2716C280.43 64.2342 281.467 63.345 281.566 63.345C281.714 63.345 281.813 63.9872 281.813 64.7776C281.813 67.5934 282.06 67.791 286.259 67.791C289.47 67.791 290.161 67.6428 290.31 67.0006C290.408 66.556 290.359 60.134 290.211 52.7735C289.964 39.9296 289.914 39.2874 288.778 37.1632C285.518 30.8895 279.639 28.1231 271.686 29.1111ZM280.331 54.1567C280.331 57.0219 280.183 57.4171 278.75 58.8496C277.219 60.381 274.749 61.369 272.526 61.369C270.797 61.369 268.129 60.0846 267.536 58.9978C266.746 57.5159 266.894 54.3543 267.783 53.0699C268.969 51.3903 270.155 51.0445 275.539 51.0445L280.331 50.9951V54.1567Z" fill="#019379"/>
<path d="M172.887 29.5063C172.64 29.6051 171.8 29.8027 171.059 29.9509C170.318 30.1485 168.49 31.2353 167.008 32.4703L164.291 34.6439L164.143 32.3221L163.995 30.0003L159.944 29.8521C156.338 29.7533 155.844 29.8027 155.35 30.6919C155.004 31.3835 154.906 37.6078 154.955 49.6119L155.103 67.544H159.796H164.489L164.736 54.8483C164.983 42.943 165.032 42.1032 166.02 40.7694C167.651 38.5958 170.022 37.4596 172.887 37.4596C176.246 37.4596 178.42 38.6946 179.605 41.2634C180.445 43.1406 180.544 44.6226 180.544 55.5399V67.791H185.237C188.645 67.791 189.93 67.6428 189.93 67.1488C189.979 66.8524 189.979 60.381 189.93 52.8723C189.93 39.5838 189.88 39.0898 188.744 36.5211C187.361 33.3101 184.249 30.5437 181.285 29.8027C179.309 29.3087 174.073 29.1111 172.887 29.5063Z" fill="#019379"/>
<path d="M197.389 30.1485C196.796 31.2847 196.648 52.8723 197.192 62.2582L197.488 67.791H202.131H206.726V49.0685C206.726 38.744 206.528 30.1979 206.33 30.0497C206.083 29.9015 204.107 29.6545 201.934 29.4569C198.229 29.1605 197.883 29.2099 197.389 30.1485Z" fill="#019379"/>
<path d="M334.522 29.8027C330.62 30.7412 326.668 33.5076 324.247 36.9656C320.098 42.9923 320.048 53.959 324.05 60.381C329.632 69.2235 342.574 71.3971 352.059 65.0739C354.924 63.1473 355.418 62.6533 355.418 61.369C355.418 60.2328 355.023 59.64 353.59 58.652C351.17 57.0712 350.478 57.0712 347.811 58.9978C344.155 61.5666 338.128 61.5666 335.115 59.0472C333.337 57.5158 331.756 54.4036 331.706 52.3782V50.9951L343.958 50.8963L356.159 50.7481L356.307 47.7841C356.505 44.2273 355.665 39.5838 354.43 37.1138C352.998 34.3474 349.046 31.087 345.934 30.0991C343.068 29.2099 337.684 29.0617 334.522 29.8027ZM342.08 36.6692C344.649 37.3608 347.02 40.0284 347.366 42.5477L347.663 44.5731H339.66H331.706V43.0911C331.706 39.979 333.781 37.4596 336.943 36.7186C339.561 36.1258 340.055 36.1258 342.08 36.6692Z" fill="#019379"/>
<path d="M23.0331 41.6062C18.2653 38.985 13.4991 36.3611 8.72921 33.7437C6.29707 32.4091 3.85776 31.0876 1.42331 29.7572C0.6989 29.3613 0.00348509 28.9294 1.35113e-05 27.966C-0.00343062 27.0103 0.652077 26.5672 1.39383 26.1633C8.67266 22.2001 15.9457 18.2263 23.2208 14.2563C31.3568 9.81647 39.5063 5.40117 47.6209 0.922672C49.829 -0.296026 51.8989 -0.310979 54.1077 0.89881C69.4745 9.31529 84.8584 17.7005 100.24 26.0902C101 26.5048 101.75 26.9144 101.765 27.9203C101.781 28.9845 100.985 29.4027 100.198 29.8321C93.0769 33.7173 85.9589 37.608 78.7165 41.5588C74.1566 44.0366 69.7173 46.4473 65.2849 48.8707C61.7755 50.7895 58.2449 52.6722 54.7801 54.669C52.3329 56.0792 49.9708 56.4209 47.4408 54.8987C45.6683 53.8322 43.8032 52.9201 41.9843 51.93C35.6661 48.4909 29.35 45.0478 23.0331 41.6062ZM67.5839 17.2598C66.4245 14.6332 63.7132 14.0899 61.706 16.1194C56.6079 21.274 51.5257 26.4444 46.4533 31.6243C46.1928 31.8904 46.0835 32.3045 45.8642 32.7255C45.2703 32.0505 45.0145 31.7653 44.7648 31.475C43.2962 29.7681 41.8706 28.0217 40.3482 26.3643C39.1108 25.0171 37.0004 24.953 35.6687 26.099C34.3049 27.2725 33.9326 29.3256 35.0355 30.6574C37.6606 33.8273 40.3312 36.9628 43.0828 40.0228C44.3772 41.4624 46.558 41.4384 47.911 40.0647C54.208 33.6709 60.4776 27.25 66.7389 20.8212C67.6513 19.8844 68.0229 18.7374 67.5839 17.2598Z" fill="#019379"/>
<path d="M23.1383 41.7236C29.4343 45.062 35.7217 48.5001 42.0112 51.9343C43.8218 52.923 45.6785 53.8338 47.443 54.8987C49.9615 56.4187 52.3129 56.0776 54.7489 54.6693C58.198 52.6754 61.7126 50.7954 65.2061 48.8793C69.6183 46.4594 74.0374 44.0522 78.5267 41.6313C78.6055 46.6804 78.6973 51.7397 78.5837 56.7943C78.5179 59.7228 76.9713 61.9481 74.2066 62.8922C70.2446 64.2451 66.1854 65.3118 62.1661 66.4955C60.2902 67.0479 58.4031 67.5632 56.5343 68.1388C52.7443 69.3062 48.9759 69.2684 45.1776 68.1369C39.7224 66.5119 34.2488 64.9485 28.7808 63.3668C24.8942 62.2425 23.1284 59.8991 23.1285 55.8353C23.1287 51.1642 23.1299 46.493 23.1383 41.7236Z" fill="#0D766B"/>
<path d="M67.6734 17.0981C68.0909 18.4939 67.7176 19.6412 66.8012 20.5781C60.5119 27.0084 54.2145 33.4309 47.8893 39.8261C46.5303 41.2001 44.3398 41.2241 43.0396 39.7842C40.2758 36.7235 37.5933 33.5872 34.9565 30.4167C33.8486 29.0845 34.2226 27.031 35.5925 25.8572C36.9301 24.7109 39.0499 24.775 40.2929 26.1226C41.8221 27.7803 43.254 29.5271 44.7291 31.2344C44.98 31.5248 45.2368 31.81 45.8335 32.4852C46.0537 32.0641 46.1635 31.6499 46.4251 31.3838C51.5201 26.2027 56.625 21.0311 61.7458 15.8753C63.762 13.8454 66.4854 14.3887 67.6734 17.0981Z" fill="#FDBD59"/>
</svg>
