<svg width="102" height="69" viewBox="0 0 102 69" fill="none" xmlns="http://www.w3.org/2000/svg">
<path d="M23.0331 41.6062C18.2653 38.985 13.4991 36.3611 8.72921 33.7437C6.29707 32.4091 3.85776 31.0876 1.42331 29.7572C0.6989 29.3613 0.00348509 28.9294 1.35113e-05 27.966C-0.00343062 27.0103 0.652077 26.5672 1.39383 26.1633C8.67266 22.2001 15.9457 18.2263 23.2208 14.2563C31.3568 9.81647 39.5063 5.40117 47.6209 0.922672C49.829 -0.296026 51.8989 -0.310979 54.1077 0.89881C69.4745 9.31529 84.8584 17.7005 100.24 26.0902C101 26.5048 101.75 26.9144 101.765 27.9203C101.781 28.9845 100.985 29.4027 100.198 29.8321C93.0769 33.7173 85.9589 37.608 78.7165 41.5588C74.1566 44.0366 69.7173 46.4473 65.2849 48.8707C61.7755 50.7895 58.2449 52.6722 54.7801 54.669C52.3329 56.0792 49.9708 56.4209 47.4408 54.8987C45.6683 53.8322 43.8032 52.9201 41.9843 51.93C35.6661 48.4909 29.35 45.0478 23.0331 41.6062ZM67.5839 17.2598C66.4245 14.6332 63.7132 14.0899 61.706 16.1194C56.6079 21.274 51.5257 26.4444 46.4533 31.6243C46.1928 31.8904 46.0835 32.3045 45.8642 32.7255C45.2703 32.0505 45.0145 31.7653 44.7648 31.475C43.2962 29.7681 41.8706 28.0217 40.3482 26.3643C39.1108 25.0171 37.0004 24.953 35.6687 26.099C34.3049 27.2725 33.9326 29.3256 35.0355 30.6574C37.6606 33.8273 40.3312 36.9628 43.0828 40.0228C44.3772 41.4624 46.558 41.4384 47.911 40.0647C54.208 33.6709 60.4776 27.25 66.7389 20.8212C67.6513 19.8844 68.0229 18.7374 67.5839 17.2598Z" fill="#019379"/>
<path d="M23.1383 41.7236C29.4343 45.062 35.7217 48.5001 42.0112 51.9343C43.8218 52.923 45.6785 53.8338 47.443 54.8987C49.9615 56.4187 52.3129 56.0776 54.7489 54.6693C58.198 52.6754 61.7126 50.7954 65.2061 48.8793C69.6183 46.4594 74.0374 44.0522 78.5267 41.6313C78.6055 46.6804 78.6973 51.7397 78.5837 56.7943C78.5179 59.7228 76.9713 61.9481 74.2066 62.8922C70.2446 64.2451 66.1854 65.3118 62.1661 66.4955C60.2902 67.0479 58.4031 67.5632 56.5343 68.1388C52.7443 69.3062 48.9759 69.2684 45.1776 68.1369C39.7224 66.5119 34.2488 64.9485 28.7808 63.3668C24.8942 62.2425 23.1284 59.8991 23.1285 55.8353C23.1287 51.1642 23.1299 46.493 23.1383 41.7236Z" fill="#0D766B"/>
<path d="M67.6734 17.0981C68.0909 18.4939 67.7176 19.6412 66.8012 20.5781C60.5119 27.0084 54.2145 33.4309 47.8893 39.8261C46.5303 41.2001 44.3398 41.2241 43.0396 39.7842C40.2758 36.7235 37.5933 33.5872 34.9565 30.4167C33.8486 29.0845 34.2226 27.031 35.5925 25.8572C36.9301 24.7109 39.0499 24.775 40.2929 26.1226C41.8221 27.7803 43.254 29.5271 44.7291 31.2344C44.98 31.5248 45.2368 31.81 45.8335 32.4852C46.0537 32.0641 46.1635 31.6499 46.4251 31.3838C51.5201 26.2027 56.625 21.0311 61.7458 15.8753C63.762 13.8454 66.4854 14.3887 67.6734 17.0981Z" fill="#FDBD59"/>
</svg>
