<svg width="425" height="424" viewBox="0 0 425 424" fill="none" xmlns="http://www.w3.org/2000/svg">
<path opacity="0.7" d="M58.5905 141.692C58.5905 141.692 34.9483 202.748 68.1729 264.228C101.398 325.708 169.831 358.187 224.604 385.959C279.376 413.731 336.251 400.205 363.277 354.718C390.303 309.232 353.237 276.762 353.186 211.898C353.135 147.035 362.895 129.863 327.746 75.0648C292.596 20.2671 206.431 8.13219 141.271 48.7768C76.1102 89.4215 58.5905 141.692 58.5905 141.692Z" fill="white"/>
<path d="M54.995 118.007C77.6451 74.0472 119.706 40.7886 172.07 36.1077C208.085 32.9674 243.978 43.3519 272.753 65.2365C287.05 76.2605 299.753 90.2949 308.191 106.314C317.875 124.715 320.699 145.932 330.663 164.249C343.052 187.018 366.321 196.414 381.95 216.087C394.814 232.292 399.232 254.01 397.757 274.65C395.06 312.327 372.987 348.095 340.517 367.404C313.067 383.728 279.978 388.231 248.085 386.747C198.901 384.466 149.937 368.244 111.2 337.86C72.4638 307.476 44.624 262.558 38.0265 213.772C33.5406 180.624 40.0617 146.984 54.995 118.007Z" fill="#92E3A9"/>
<path opacity="0.7" d="M54.995 118.007C77.6451 74.0472 119.706 40.7886 172.07 36.1077C208.085 32.9674 243.978 43.3519 272.753 65.2365C287.05 76.2605 299.753 90.2949 308.191 106.314C317.875 124.715 320.699 145.932 330.663 164.249C343.052 187.018 366.321 196.414 381.95 216.087C394.814 232.292 399.232 254.01 397.757 274.65C395.06 312.327 372.987 348.095 340.517 367.404C313.067 383.728 279.978 388.231 248.085 386.747C198.901 384.466 149.937 368.244 111.2 337.86C72.4638 307.476 44.624 262.558 38.0265 213.772C33.5406 180.624 40.0617 146.984 54.995 118.007Z" fill="white"/>
<path d="M40.0532 134.077C41.0539 138.046 40.562 130.745 42.5209 121.824C44.4798 112.903 47.8463 116.515 47.8463 116.515" stroke="#263238" stroke-linecap="round" stroke-linejoin="round"/>
<path d="M39.4426 124.961L45.5906 122.443" stroke="#263238" stroke-linecap="round" stroke-linejoin="round"/>
<path d="M50.6703 119.416C50.6703 119.416 46.9984 127.048 52.5359 130.253" stroke="#263238" stroke-linecap="round" stroke-linejoin="round"/>
<path d="M55.8853 117.278C55.8853 117.278 61.9569 120.67 58.1579 127.946" stroke="#263238" stroke-linecap="round" stroke-linejoin="round"/>
<path d="M51.7302 121.993L56.0805 125.165" stroke="#263238" stroke-linecap="round" stroke-linejoin="round"/>
<path d="M55.139 120.594L51.7385 126.013" stroke="#263238" stroke-linecap="round" stroke-linejoin="round"/>
<path d="M74.6746 201.81C75.5021 196.768 72.0855 192.01 67.0434 191.183C62.0013 190.355 57.243 193.772 56.4155 198.814C55.588 203.856 59.0047 208.614 64.0468 209.442C69.0889 210.269 73.8472 206.853 74.6746 201.81Z" stroke="#263238" stroke-linecap="round" stroke-linejoin="round"/>
<path d="M80.1623 213.982C85.7136 212.844 89.291 207.42 88.1524 201.869C87.0139 196.318 81.5907 192.74 76.0394 193.879C70.488 195.017 66.9107 200.441 68.0493 205.992C69.1878 211.543 74.611 215.121 80.1623 213.982Z" stroke="#263238" stroke-linecap="round" stroke-linejoin="round"/>
<path d="M73.9733 196.49L69.7163 198.008" stroke="#263238" stroke-linecap="round" stroke-linejoin="round"/>
<path d="M74.5669 198.246L68.4443 200.459" stroke="#263238" stroke-linecap="round" stroke-linejoin="round"/>
<path d="M74.7958 200.365L67.9609 202.994" stroke="#263238" stroke-linecap="round" stroke-linejoin="round"/>
<path d="M74.3124 203.257L68.0796 206.107" stroke="#263238" stroke-linecap="round" stroke-linejoin="round"/>
<path d="M73.2099 205.479L68.478 207.446" stroke="#263238" stroke-linecap="round" stroke-linejoin="round"/>
<path d="M70.013 186.212C69.7501 185.364 66.7482 184.839 66.621 187.06C66.4938 189.282 69.7841 187.433 70.7169 186.212C70.7169 186.212 69.0209 188.493 69.7332 188.943" stroke="#263238" stroke-linecap="round" stroke-linejoin="round"/>
<path d="M86.6339 188.977L83.9712 194.514C83.9712 194.514 85.3026 191.742 86.7272 191.97C88.4826 192.284 87.3123 195.159 85.1923 194.099" stroke="#263238" stroke-linecap="round" stroke-linejoin="round"/>
<path d="M376.404 279.391L380.584 283.342" stroke="#263238" stroke-linecap="round" stroke-linejoin="round"/>
<path d="M380.585 278.356L377.082 283.588" stroke="#263238" stroke-linecap="round" stroke-linejoin="round"/>
<path d="M384.697 279.857L388.886 278.297" stroke="#263238" stroke-linecap="round" stroke-linejoin="round"/>
<path d="M390.896 273.938L393.44 276.185" stroke="#263238" stroke-linecap="round" stroke-linejoin="round"/>
<path d="M395.391 271.233L392.168 282.291" stroke="#263238" stroke-linecap="round" stroke-linejoin="round"/>
<path d="M200.24 217.274L211.493 209.532L226.393 210.575L227.326 229.469L216.386 237.287L202.886 236.304L200.24 217.274Z" stroke="#263238" stroke-linecap="round" stroke-linejoin="round"/>
<path d="M202.886 236.304L213.783 228.46L227.326 229.469" stroke="#263238" stroke-linecap="round" stroke-linejoin="round"/>
<path d="M213.783 228.46L211.493 209.532" stroke="#263238" stroke-linecap="round" stroke-linejoin="round"/>
<path d="M200.24 217.274L215.106 218.996L226.393 210.575" stroke="#263238" stroke-linecap="round" stroke-linejoin="round"/>
<path d="M215.106 218.996L216.386 237.287" stroke="#263238" stroke-linecap="round" stroke-linejoin="round"/>
<path d="M331.579 153.802L326.592 169.295L342.111 167.2L331.579 153.802Z" stroke="#263238" stroke-linecap="round" stroke-linejoin="round"/>
<path d="M331.579 153.802L334.352 168.158" stroke="#263238" stroke-linecap="round" stroke-linejoin="round"/>
<path d="M333.911 165.861L335.725 165.572L336.149 168.006" stroke="#263238" stroke-linecap="round" stroke-linejoin="round"/>
<path d="M136.148 295.579L143.899 299.387" stroke="#263238" stroke-linecap="round" stroke-linejoin="round"/>
<path d="M141.398 292.67L139.176 300.769" stroke="#263238" stroke-linecap="round" stroke-linejoin="round"/>
<path d="M142.475 288.719C142.602 288.587 142.758 288.487 142.931 288.427C143.103 288.366 143.288 288.347 143.469 288.371C143.651 288.395 143.824 288.461 143.975 288.564C144.127 288.667 144.252 288.805 144.34 288.965C145.12 290.186 143.594 292.747 143.594 292.747L146.706 291.56" stroke="#263238" stroke-linecap="round" stroke-linejoin="round"/>
<path d="M197.001 28.832C204.404 32.9957 195.924 43.1717 195.924 49.1077C195.924 55.0437 204.404 54.1957 208.644 55.8917C210.34 55.8917 213.732 55.8917 213.639 60.1995" stroke="#263238" stroke-linecap="round" stroke-linejoin="round"/>
<path d="M188.75 34.2339C190.039 41.2468 198.078 38.7622 203.013 40.3649C211.493 43.1209 206.787 51.8723 204.26 57.1638C202.742 60.3184 201.233 64.7449 203.946 67.7384" stroke="#263238" stroke-linecap="round" stroke-linejoin="round"/>
<path d="M189.835 36.9558L198.663 29.6206" stroke="#263238" stroke-linecap="round" stroke-linejoin="round"/>
<path d="M193.295 39.1438L199.943 33.6318" stroke="#263238" stroke-linecap="round" stroke-linejoin="round"/>
<path d="M197.205 44.7236L202.818 40.314" stroke="#263238" stroke-linecap="round" stroke-linejoin="round"/>
<path d="M196.043 51.321L207.016 43.4346" stroke="#263238" stroke-linecap="round" stroke-linejoin="round"/>
<path d="M200.249 54.3994L207.898 48.7856" stroke="#263238" stroke-linecap="round" stroke-linejoin="round"/>
<path d="M203.505 66.3305L213.062 58.5459" stroke="#263238" stroke-linecap="round" stroke-linejoin="round"/>
<path d="M203.743 60.2079L209.975 55.8237" stroke="#263238" stroke-linecap="round" stroke-linejoin="round"/>
<path d="M78.9603 299.803C88.0659 296.161 92.4951 285.827 88.8531 276.722C85.2111 267.616 74.8771 263.187 65.7714 266.829C56.6658 270.471 52.2366 280.805 55.8786 289.911C59.5206 299.016 69.8546 303.445 78.9603 299.803Z" stroke="#263238" stroke-linecap="round" stroke-linejoin="round"/>
<path d="M76.8308 266.136C83.0212 258.869 88.2873 254.756 90.314 256.096C93.4008 258.123 87.8633 271.962 77.9502 286.997C68.0371 302.032 57.4964 312.581 54.4097 310.546C52.3745 309.215 54.0875 302.753 58.3275 294.197" stroke="#263238" stroke-linecap="round" stroke-linejoin="round"/>
<path d="M54.9866 286.963C46.3539 284.479 40.8419 281.579 41.1896 279.263C41.6899 275.6 56.6063 274.752 74.4227 277.423C92.2392 280.095 106.248 285.157 105.714 288.803C105.332 291.347 98.0819 292.509 87.7787 292.119" stroke="#263238" stroke-linecap="round" stroke-linejoin="round"/>
<path d="M57.2506 274.099C50.738 262.346 47.4817 253.179 49.6865 251.746C52.5866 249.872 63.7972 262.032 74.7279 278.882C85.6586 295.732 92.1628 310.962 89.2711 312.844C87.3546 314.082 81.8002 309.181 75.0925 300.836" stroke="#263238" stroke-linecap="round" stroke-linejoin="round"/>
<path d="M92.8158 263.779C92.4996 264.261 92.0476 264.638 91.517 264.864C90.9864 265.089 90.4009 265.152 89.8344 265.045C89.2679 264.938 88.7459 264.665 88.3343 264.262C87.9226 263.858 87.6398 263.342 87.5215 262.777C87.4033 262.213 87.4548 261.627 87.6697 261.092C87.8846 260.557 88.2531 260.097 88.7288 259.772C89.2046 259.446 89.7661 259.269 90.3426 259.262C90.919 259.255 91.4846 259.419 91.9678 259.734C92.2896 259.943 92.5669 260.214 92.7838 260.531C93.0007 260.848 93.1529 261.205 93.2316 261.58C93.3104 261.956 93.3142 262.344 93.2429 262.721C93.1715 263.098 93.0264 263.458 92.8158 263.779Z" fill="#263238"/>
<path d="M83.1571 308.46C82.8409 308.942 82.3889 309.32 81.8583 309.545C81.3277 309.77 80.7422 309.833 80.1757 309.726C79.6092 309.619 79.0872 309.347 78.6756 308.943C78.264 308.539 77.9811 308.023 77.8628 307.459C77.7446 306.894 77.7961 306.308 78.011 305.773C78.2259 305.238 78.5944 304.778 79.0702 304.453C79.5459 304.127 80.1074 303.95 80.6839 303.943C81.2604 303.936 81.8259 304.101 82.3091 304.415C82.6309 304.624 82.9082 304.895 83.1251 305.212C83.342 305.529 83.4942 305.886 83.573 306.261C83.6517 306.637 83.6556 307.025 83.5842 307.402C83.5128 307.779 83.3677 308.139 83.1571 308.46Z" fill="#263238"/>
<path d="M67.5709 278.144C67.2547 278.626 66.8027 279.004 66.2721 279.229C65.7415 279.454 65.156 279.518 64.5895 279.41C64.0231 279.303 63.5011 279.031 63.0894 278.627C62.6778 278.223 62.395 277.707 62.2767 277.143C62.1584 276.578 62.2099 275.992 62.4248 275.457C62.6397 274.922 63.0083 274.463 63.484 274.137C63.9597 273.811 64.5213 273.634 65.0977 273.627C65.6742 273.62 66.2397 273.785 66.7229 274.099C67.3711 274.524 67.8244 275.188 67.9833 275.946C68.1423 276.705 67.994 277.495 67.5709 278.144Z" fill="#263238"/>
<path d="M253.546 151.215H263.535L268.53 142.566L263.535 133.916H253.546L248.551 142.566L253.546 151.215Z" stroke="#263238" stroke-linecap="round" stroke-linejoin="round"/>
<path d="M252.095 170.202L247.101 161.553H237.111" stroke="#263238" stroke-linecap="round" stroke-linejoin="round"/>
<path d="M238.451 142.566H248.441L253.435 133.916L248.441 125.258H238.451L233.457 133.916L238.451 142.566Z" stroke="#263238" stroke-linecap="round" stroke-linejoin="round"/>
<path d="M253.546 133.916H263.535L268.53 125.258L263.535 116.608H253.546L248.551 125.258L253.546 133.916Z" stroke="#263238" stroke-linecap="round" stroke-linejoin="round"/>
<path d="M253.436 135.256C254.176 135.256 254.775 134.656 254.775 133.916C254.775 133.176 254.176 132.576 253.436 132.576C252.696 132.576 252.096 133.176 252.096 133.916C252.096 134.656 252.696 135.256 253.436 135.256Z" fill="#263238"/>
<path d="M232.575 117.092C233.315 117.092 233.915 116.492 233.915 115.752C233.915 115.012 233.315 114.412 232.575 114.412C231.835 114.412 231.235 115.012 231.235 115.752C231.235 116.492 231.835 117.092 232.575 117.092Z" fill="#263238"/>
<path d="M250.756 170.202C250.756 169.937 250.834 169.678 250.982 169.458C251.129 169.237 251.338 169.066 251.583 168.964C251.828 168.863 252.097 168.836 252.357 168.888C252.617 168.94 252.856 169.067 253.043 169.255C253.23 169.442 253.358 169.681 253.41 169.941C253.461 170.201 253.435 170.47 253.334 170.715C253.232 170.96 253.06 171.169 252.84 171.316C252.62 171.463 252.361 171.542 252.096 171.542C251.92 171.542 251.746 171.507 251.583 171.44C251.42 171.373 251.273 171.274 251.148 171.15C251.024 171.025 250.925 170.877 250.858 170.715C250.791 170.552 250.756 170.378 250.756 170.202Z" fill="#263238"/>
<path d="M237.111 162.893C237.851 162.893 238.451 162.293 238.451 161.553C238.451 160.813 237.851 160.213 237.111 160.213C236.371 160.213 235.771 160.813 235.771 161.553C235.771 162.293 236.371 162.893 237.111 162.893Z" fill="#263238"/>
<path d="M278.197 125.504C278.197 125.237 278.276 124.976 278.425 124.754C278.573 124.532 278.785 124.359 279.031 124.258C279.278 124.156 279.55 124.13 279.812 124.182C280.073 124.235 280.314 124.364 280.502 124.554C280.69 124.743 280.818 124.984 280.869 125.246C280.92 125.508 280.892 125.78 280.789 126.026C280.685 126.272 280.511 126.482 280.288 126.629C280.065 126.776 279.804 126.854 279.537 126.852C279.36 126.852 279.185 126.817 279.022 126.75C278.859 126.682 278.711 126.582 278.586 126.457C278.462 126.332 278.363 126.183 278.297 126.019C278.23 125.856 278.196 125.681 278.197 125.504Z" fill="#263238"/>
<path d="M246.999 162.893C247.739 162.893 248.339 162.293 248.339 161.553C248.339 160.813 247.739 160.213 246.999 160.213C246.259 160.213 245.659 160.813 245.659 161.553C245.659 162.293 246.259 162.893 246.999 162.893Z" fill="#263238"/>
<path d="M267.19 125.504C267.19 125.237 267.269 124.977 267.417 124.755C267.565 124.533 267.776 124.36 268.022 124.258C268.269 124.156 268.54 124.13 268.801 124.182C269.063 124.234 269.303 124.362 269.492 124.551C269.68 124.739 269.809 124.979 269.861 125.241C269.913 125.503 269.886 125.774 269.784 126.02C269.682 126.266 269.509 126.477 269.287 126.625C269.066 126.773 268.805 126.852 268.538 126.852C268.181 126.852 267.838 126.71 267.585 126.457C267.332 126.205 267.19 125.862 267.19 125.504Z" fill="#263238"/>
<path d="M252.095 151.224C252.094 150.957 252.172 150.695 252.319 150.472C252.467 150.249 252.677 150.075 252.924 149.971C253.171 149.868 253.442 149.841 253.705 149.893C253.967 149.944 254.208 150.073 254.397 150.262C254.586 150.451 254.715 150.692 254.767 150.955C254.818 151.217 254.791 151.489 254.688 151.735C254.585 151.982 254.411 152.193 254.188 152.34C253.965 152.488 253.703 152.565 253.435 152.564C253.081 152.562 252.741 152.42 252.49 152.169C252.24 151.918 252.098 151.579 252.095 151.224Z" fill="#263238"/>
<path d="M268.538 125.487H279.537" stroke="#263238" stroke-linecap="round" stroke-linejoin="round"/>
<path d="M253.435 151.224L246.999 161.552" stroke="#263238" stroke-linecap="round" stroke-linejoin="round"/>
<path d="M238.451 125.258L232.575 115.752" stroke="#263238" stroke-linecap="round" stroke-linejoin="round"/>
<path d="M309.302 91.1599C310.454 87.2654 312.855 83.8582 316.136 81.4637C319.416 79.0693 323.393 77.8206 327.454 77.9103C331.514 78 335.432 79.423 338.603 81.96C341.775 84.497 344.023 88.0069 345.003 91.9485" stroke="#263238" stroke-linecap="round" stroke-linejoin="round"/>
<path d="M324.922 114.768C320.41 114.252 316.246 112.094 313.223 108.705C310.2 105.316 308.53 100.933 308.53 96.3921" stroke="#263238" stroke-linecap="round" stroke-linejoin="round"/>
<path d="M345.537 96.3921C345.537 101.296 343.589 105.999 340.123 109.467C336.656 112.935 331.954 114.885 327.05 114.887" stroke="#263238" stroke-linecap="round" stroke-linejoin="round"/>
<path d="M346.588 84.6644C352.372 83.9266 356.247 84.3252 356.849 86.0551C358.045 89.498 345.672 96.918 329.213 102.633C312.753 108.349 298.447 110.181 297.243 106.729C296.607 104.889 299.847 101.913 305.511 98.6648" stroke="#263238" stroke-linecap="round" stroke-linejoin="round"/>
<path d="M246.999 71.9951L248.771 75.5822L252.732 76.1588L249.865 78.9572L250.544 82.9004L246.999 81.0348L243.454 82.9004L244.133 78.9572L241.267 76.1588L245.227 75.5822L246.999 71.9951Z" stroke="#263238" stroke-linecap="round" stroke-linejoin="round"/>
<path d="M121.8 62.4384C121.798 65.6277 120.531 68.6857 118.276 70.9417C116.022 73.1976 112.965 74.4671 109.776 74.4716C109.386 74.4716 109.004 74.4546 108.631 74.4207C106.31 74.2005 104.103 73.3109 102.278 71.8599C100.453 70.4089 99.0893 68.4591 98.3519 66.2474C97.6145 64.0358 97.5355 61.6575 98.1244 59.4017C98.7133 57.146 99.9448 55.1099 101.669 53.5409C103.394 51.972 105.537 50.9377 107.838 50.5639C110.139 50.1901 112.499 50.4928 114.632 51.4353C116.764 52.3777 118.577 53.9193 119.849 55.8727C121.122 57.8261 121.8 60.1071 121.8 62.4384Z" stroke="#263238" stroke-linecap="round" stroke-linejoin="round"/>
<path d="M119.875 64.6091C119.877 64.9784 119.769 65.3399 119.565 65.6478C119.361 65.9558 119.07 66.1962 118.73 66.3387C118.389 66.4812 118.014 66.5194 117.651 66.4483C117.289 66.3773 116.955 66.2003 116.694 65.9397C116.432 65.6792 116.253 65.3468 116.181 64.9846C116.108 64.6225 116.145 64.247 116.285 63.9056C116.426 63.5642 116.666 63.2723 116.973 63.067C117.28 62.8616 117.641 62.752 118.01 62.752C118.503 62.7519 118.976 62.9473 119.326 63.2954C119.676 63.6434 119.873 64.1158 119.875 64.6091Z" stroke="#263238" stroke-linecap="round" stroke-linejoin="round"/>
<path d="M103.127 69.3411C103.128 69.7831 103.031 70.2198 102.844 70.62C102.656 71.0202 102.382 71.374 102.042 71.6562C100.461 70.3508 99.2428 68.6597 98.5059 66.7463C98.9725 66.4597 99.5101 66.3099 100.058 66.3138C100.459 66.3082 100.857 66.3823 101.229 66.5319C101.601 66.6816 101.94 66.9037 102.226 67.1853C102.511 67.467 102.738 67.8027 102.893 68.1727C103.048 68.5428 103.127 68.94 103.127 69.3411Z" stroke="#263238" stroke-linecap="round" stroke-linejoin="round"/>
<path d="M118.01 71.232C115.786 73.3381 112.839 74.5099 109.776 74.5053C109.386 74.5053 109.004 74.4883 108.631 74.4544C108.563 74.1281 108.529 73.7956 108.529 73.4623C108.53 72.3349 108.911 71.2408 109.611 70.3573C110.311 69.4737 111.289 68.8525 112.387 68.5944C113.484 68.3362 114.637 68.4562 115.657 68.935C116.678 69.4137 117.507 70.2232 118.01 71.232Z" stroke="#263238" stroke-linecap="round" stroke-linejoin="round"/>
<path d="M106.859 57.6642C108.386 57.6642 109.623 56.4265 109.623 54.8997C109.623 53.373 108.386 52.1353 106.859 52.1353C105.332 52.1353 104.094 53.373 104.094 54.8997C104.094 56.4265 105.332 57.6642 106.859 57.6642Z" stroke="#263238" stroke-linecap="round" stroke-linejoin="round"/>
<path d="M109.42 62.7522C109.42 63.0054 109.345 63.253 109.204 63.4636C109.063 63.6741 108.863 63.8383 108.629 63.9352C108.395 64.0321 108.138 64.0574 107.889 64.008C107.641 63.9586 107.413 63.8367 107.234 63.6576C107.055 63.4785 106.933 63.2504 106.883 63.002C106.834 62.7536 106.859 62.4961 106.956 62.2621C107.053 62.0282 107.217 61.8282 107.428 61.6875C107.638 61.5468 107.886 61.4717 108.139 61.4717C108.307 61.4717 108.474 61.5048 108.629 61.5692C108.784 61.6335 108.926 61.7278 109.045 61.8467C109.163 61.9656 109.258 62.1068 109.322 62.2621C109.386 62.4175 109.42 62.584 109.42 62.7522Z" stroke="#263238" stroke-linecap="round" stroke-linejoin="round"/>
<path d="M119.536 55.4169C119.2 55.5273 118.847 55.5817 118.493 55.578C118.03 55.578 117.572 55.4867 117.145 55.3093C116.717 55.1319 116.329 54.872 116.002 54.5443C115.675 54.2166 115.416 53.8276 115.239 53.3997C115.063 52.9717 114.973 52.5132 114.974 52.0503C114.965 51.9035 114.965 51.7562 114.974 51.6094C116.79 52.4753 118.359 53.7848 119.536 55.4169Z" stroke="#263238" stroke-linecap="round" stroke-linejoin="round"/>
<path d="M396.027 202.07L397.324 199.153L395.221 198C395.298 197.486 395.313 196.965 395.263 196.448L397.417 195.396L396.272 192.42L393.966 193.081C393.657 192.666 393.298 192.29 392.897 191.962L393.686 189.689L390.769 188.392L389.607 190.495C389.092 190.431 388.571 190.431 388.055 190.495L387.012 188.341L384.027 189.486L384.697 191.784C384.281 192.098 383.903 192.46 383.569 192.861L381.305 192.072L380.042 194.947L382.145 196.108C382.067 196.622 382.053 197.143 382.102 197.66L379.94 198.703L381.085 201.688L383.391 201.018C383.703 201.434 384.061 201.813 384.46 202.146L383.68 204.41L386.597 205.708L387.75 203.605C388.264 203.682 388.785 203.696 389.302 203.647L390.353 205.81L393.33 204.665L392.668 202.358C393.082 202.047 393.457 201.688 393.788 201.29L396.027 202.07ZM387.156 200.442C386.487 200.144 385.921 199.654 385.529 199.035C385.138 198.415 384.939 197.694 384.958 196.961C384.977 196.228 385.212 195.518 385.635 194.919C386.057 194.32 386.648 193.86 387.332 193.597C388.016 193.334 388.762 193.28 389.477 193.441C390.192 193.602 390.843 193.971 391.348 194.502C391.853 195.033 392.189 195.702 392.314 196.424C392.439 197.147 392.347 197.889 392.049 198.559C391.649 199.456 390.909 200.158 389.992 200.511C389.075 200.864 388.055 200.839 387.156 200.442Z" stroke="#263238" stroke-linecap="round" stroke-linejoin="round"/>
<path d="M380.525 217.037L382.289 213.077L379.44 211.5C379.541 210.803 379.558 210.097 379.491 209.397L382.425 207.972L380.89 203.927L377.761 204.834C377.342 204.267 376.855 203.755 376.311 203.308L377.379 200.221L373.385 198.432L371.816 201.281C371.12 201.181 370.414 201.161 369.713 201.222L368.288 198.296L364.235 199.857L365.142 202.977C364.579 203.403 364.067 203.893 363.616 204.436L360.538 203.401L358.774 207.362L361.623 208.939C361.522 209.635 361.505 210.341 361.572 211.042L358.638 212.466L360.199 216.511L363.328 215.613C363.748 216.178 364.235 216.69 364.778 217.139L363.709 220.217L367.678 221.981L369.247 219.123C369.943 219.227 370.649 219.247 371.35 219.183L372.774 222.108L376.828 220.556L375.92 217.427C376.483 217.004 376.996 216.518 377.447 215.977L380.525 217.037ZM368.483 214.824C367.573 214.418 366.804 213.752 366.272 212.909C365.741 212.066 365.472 211.084 365.498 210.088C365.525 209.091 365.847 208.126 366.423 207.312C366.999 206.499 367.803 205.875 368.734 205.519C369.664 205.162 370.68 205.09 371.652 205.311C372.623 205.533 373.508 206.037 374.192 206.761C374.877 207.485 375.332 208.395 375.5 209.378C375.667 210.36 375.539 211.37 375.132 212.28C374.863 212.884 374.477 213.429 373.997 213.884C373.518 214.339 372.953 214.694 372.335 214.931C371.718 215.167 371.06 215.279 370.399 215.261C369.738 215.243 369.087 215.094 368.483 214.824Z" stroke="#263238" stroke-linecap="round" stroke-linejoin="round"/>
<path d="M204.735 179.445C203.573 181.647 202.261 183.766 200.809 185.788C193.274 196.264 182.204 203.658 169.642 206.606C157.08 209.553 143.875 207.855 132.468 201.824C131.29 201.205 130.136 200.544 129.034 199.848C127.931 199.153 126.854 198.441 125.82 197.677C124.565 196.77 123.361 195.803 122.207 194.794C122.134 194.739 122.065 194.676 122.004 194.608C114.489 187.957 108.997 179.327 106.154 169.703C103.311 160.08 103.233 149.85 105.927 140.184C108.622 130.518 113.982 121.805 121.394 115.04C128.805 108.275 137.971 103.732 147.842 101.928C157.714 100.125 167.893 101.135 177.218 104.843C186.543 108.55 194.637 114.806 200.575 122.895C206.513 130.985 210.056 140.581 210.799 150.588C211.542 160.596 209.455 170.61 204.777 179.488L204.735 179.445Z" fill="#92E3A9"/>
<mask id="mask0_126_13597" style="mask-type:luminance" maskUnits="userSpaceOnUse" x="103" y="101" width="108" height="108">
<path d="M204.735 179.445C203.573 181.647 202.261 183.766 200.809 185.788C193.274 196.264 182.204 203.658 169.642 206.606C157.08 209.553 143.875 207.855 132.468 201.824C131.29 201.205 130.136 200.544 129.034 199.848C127.931 199.153 126.854 198.441 125.82 197.677C124.565 196.77 123.361 195.803 122.207 194.794C122.134 194.739 122.065 194.676 122.004 194.608C114.489 187.957 108.997 179.327 106.154 169.703C103.311 160.08 103.233 149.85 105.927 140.184C108.622 130.518 113.982 121.805 121.394 115.04C128.805 108.275 137.971 103.732 147.842 101.928C157.714 100.125 167.893 101.135 177.218 104.843C186.543 108.55 194.637 114.806 200.575 122.895C206.513 130.985 210.056 140.581 210.799 150.588C211.542 160.596 209.455 170.61 204.777 179.488L204.735 179.445Z" fill="white"/>
</mask>
<g mask="url(#mask0_126_13597)">
<g opacity="0.6">
<path d="M204.735 179.445C203.573 181.647 202.261 183.766 200.809 185.788L199.774 184.94L197.993 183.999L196.119 183.016L196.433 180.751L196.331 178.708C196.221 176.664 197.696 178.335 198.875 177.716C199.794 177.059 200.537 176.185 201.038 175.172C201.038 175.172 201.886 172.449 201.606 171.356C201.149 170.095 200.611 168.866 199.994 167.675L196.959 171.915L194.415 171.72L192.006 170.448L191.693 167.099L190.454 166.454L189.937 164.529L183.246 162.655L182.483 161.315C181.72 159.975 178.642 159.288 178.642 159.288L179.397 157.542L180.584 155.591C181.779 153.641 183.018 156.88 183.018 156.88L184.434 157.618L187.062 155.413L187.758 152.25L192.04 152.496C191.956 152.068 192.022 151.624 192.225 151.238C192.429 150.853 192.759 150.548 193.16 150.376C194.584 149.816 193.957 146.721 193.414 145.576C192.871 144.432 190.87 145.356 190.87 145.356C190.87 145.356 188.691 142.04 188.394 140.717C188.097 139.394 192.549 139.869 194.457 138.538C196.365 137.207 195.712 134.561 194.779 134.501C193.846 134.442 196.602 128.481 201.902 130.117C203.378 130.575 204.311 130.414 204.887 129.905C208.864 137.562 210.927 146.067 210.901 154.694C210.874 163.321 208.758 171.814 204.735 179.445Z" fill="white"/>
<path d="M167.652 156.507L165.837 158.788C165.837 158.788 165.065 156.948 163.963 157.94L162.267 159.45L161.037 162.893L158.833 164.317L157.484 163.613L156.212 162.935L154.83 162.206L153.507 164.75L152.43 166.785C152.955 167.784 153.608 168.71 154.372 169.541L156.713 173.671L159.562 175.112C160.75 175.156 161.933 175.298 163.098 175.536L165.057 176.562L164.362 180.802C164.362 180.802 162.886 183.202 161.902 182.541L160.91 181.888L159.299 187.468L159.231 190.537C159.231 190.537 158.273 190.936 157.306 191.258C156.339 191.58 156.95 191.411 154.923 192.038C152.897 192.666 153.058 192.64 151.413 193.107C150.01 193.598 148.661 194.228 147.385 194.989L147.529 197.94L143.653 198.509L141.482 197.355L142.017 195.49L142.271 192.573L141.974 190.393L141.042 188.468L143.653 186.102L143.077 184.618L141.593 181.667L138.455 183.363L136.844 184.211L133.198 182.575L132.799 180.361L131.578 176.384L130.442 173.908L128.423 171.178L127.914 168.829L129.051 166.675L129.653 165.538L127.796 163.037L127.287 161.256L124.158 158.415C124.158 158.415 125.065 158.356 124.862 157.092C124.658 155.829 126.651 153.7 126.651 153.7C127.779 154.294 131.162 156.651 131.162 156.651L134.122 157.058C134.122 157.058 134.715 157.058 135.292 155.939C135.966 154.909 136.757 153.962 137.65 153.115C137.65 153.115 136.284 148.375 137.259 147.739C138.235 147.103 139.227 143.999 139.227 143.999L140.007 142.515C140.007 142.515 138.167 141.71 137.819 140.734C137.471 139.759 132.935 141.057 132.935 141.057L129.806 143.227L127.338 145.135L126.269 147.162C126.269 147.162 124.09 144.542 124.082 146.009C123.915 147.513 123.585 148.994 123.098 150.427C123.098 150.427 123.547 150.664 122.954 151.801C122.36 152.937 121.716 152.878 120.41 153.039C118.707 153.056 117.006 152.94 115.322 152.691C115.322 152.691 114.474 155.829 115.059 156.371L115.635 156.897C115.635 156.897 114.728 159.178 113.829 158.703L111.641 157.55L108.58 158.788L105.188 162.536L104.433 162.384C102.354 148.44 105.864 134.239 114.2 122.869C122.535 111.499 135.022 103.88 148.945 101.667C149.14 102.515 149.352 103.312 149.352 103.312L148.504 107.501L147.418 109.57L146.486 111.343L145.171 113.836L148.538 116.939L147.817 120.611L145.994 121.756L145.468 124.512L148.597 130.626L149.445 133.026C148.922 134.175 148.664 135.427 148.69 136.689C148.69 136.689 149.072 138.979 150.743 139.886C152.413 140.794 154.61 141.862 154.61 141.862L154.431 145.254L153.677 146.102L154.932 149.757C158.756 151.258 158.392 152.513 158.756 151.258L159.129 150.011L161.733 149.07L165.048 153.03C165.434 153.025 165.815 153.117 166.156 153.298C166.497 153.479 166.787 153.743 166.999 154.065C167.966 155.286 169.475 154.226 167.652 156.507Z" fill="white"/>
<path d="M122.708 186.043C122.801 187.247 121.275 188.757 121.275 188.757L122.521 189.41L122.903 192.802L121.961 194.599C115.292 188.707 110.204 181.238 107.164 172.874L107.842 169.278L110.836 168.854C110.836 168.854 113.515 167.073 114.703 167.548C115.89 168.023 116.975 170.94 116.975 170.94C116.975 170.94 117.823 174.875 117.713 174.799H117.662H117.73L118.951 175.443L119.299 176.995L117.603 180.217H114.872C114.872 180.217 114.329 179.929 114.279 181.345C114.323 181.837 114.472 182.313 114.716 182.742C114.961 183.17 115.294 183.541 115.695 183.83L118.646 183.075L119.434 180.022L122.335 179.454C122.335 179.454 121.919 181.328 122.597 181.684L123.284 182.049L123.691 184.288C123.388 184.468 123.137 184.725 122.964 185.034C122.791 185.342 122.703 185.69 122.708 186.043Z" fill="white"/>
<path d="M136.734 190.843C136.471 190.113 136.36 189.477 134.554 188.528C132.748 187.578 132.858 187.917 132.146 188.706C131.839 189.111 131.42 189.418 130.941 189.589C130.462 189.759 129.943 189.785 129.449 189.664C128.262 189.401 128.881 190.741 128.881 190.741L129.169 194.362L125.82 197.669C126.854 198.432 127.926 199.156 129.034 199.84L129.746 197.652L135.309 199.28C134.13 198.933 134.826 197.321 134.826 197.321L133.638 196.694C133.638 196.694 136.996 191.555 136.734 190.843Z" fill="white"/>
<path d="M171.773 172.017L169.95 170.177L167.864 170.83L167.016 172.526L166.38 173.747L167.228 175.443L168.924 177.503L169.891 175.655C169.891 175.655 172.579 175.655 173.986 174.103C175.394 172.551 171.773 172.017 171.773 172.017Z" fill="white"/>
<path d="M166.414 163.715L169.806 165.496L169.942 164.699C170.118 164.06 170.431 163.467 170.857 162.96L168.262 160.213L166.414 163.715Z" fill="white"/>
<path d="M165.26 203.189L164.285 201.756L163.149 201.163H159.681L157.705 204.911C157.705 204.911 155.814 204.656 153.329 204.436C150.844 204.215 151.455 205.241 151.455 205.241L150.811 207.599C157.079 208.371 163.435 208.029 169.585 206.59C168.87 206.091 168.129 205.633 167.364 205.216L165.26 203.189Z" fill="white"/>
</g>
</g>
<path d="M204.735 179.445C203.573 181.647 202.261 183.766 200.809 185.788C193.274 196.264 182.204 203.658 169.642 206.606C157.08 209.553 143.875 207.855 132.468 201.824C131.29 201.205 130.136 200.544 129.034 199.848C127.931 199.153 126.854 198.441 125.82 197.677C124.565 196.77 123.361 195.803 122.207 194.794C122.134 194.739 122.065 194.676 122.004 194.608C114.489 187.957 108.997 179.327 106.154 169.703C103.311 160.08 103.233 149.85 105.927 140.184C108.622 130.518 113.982 121.805 121.394 115.04C128.805 108.275 137.971 103.732 147.842 101.928C157.714 100.125 167.893 101.135 177.218 104.843C186.543 108.55 194.637 114.806 200.575 122.895C206.513 130.985 210.056 140.581 210.799 150.588C211.542 160.596 209.455 170.61 204.777 179.488L204.735 179.445Z" stroke="#263238" stroke-linecap="round" stroke-linejoin="round"/>
<path d="M169.585 206.59C163.435 208.029 157.079 208.371 150.811 207.599L151.455 205.241C151.455 205.241 150.844 204.215 153.329 204.436C155.814 204.656 157.705 204.911 157.705 204.911L159.681 201.163H163.149L164.285 201.756L165.26 203.189L167.364 205.216C168.129 205.633 168.87 206.091 169.585 206.59Z" stroke="#263238" stroke-linecap="round" stroke-linejoin="round"/>
<path d="M204.921 129.913C204.345 130.422 203.412 130.583 201.936 130.125C196.636 128.489 193.889 134.442 194.813 134.51C195.738 134.577 196.39 137.257 194.491 138.546C192.591 139.835 188.131 139.394 188.428 140.725C188.725 142.057 190.904 145.364 190.904 145.364C190.904 145.364 192.854 144.448 193.406 145.584C193.957 146.721 194.584 149.824 193.16 150.384C192.759 150.556 192.429 150.861 192.225 151.246C192.022 151.632 191.956 152.076 192.04 152.504L187.758 152.258L187.062 155.421L184.434 157.626L183.018 156.888C183.018 156.888 181.779 153.649 180.584 155.599L179.397 157.55L178.642 159.297C178.642 159.297 181.72 159.984 182.483 161.323L183.246 162.663L189.937 164.537L190.454 166.462L191.693 167.107L192.006 170.456L194.499 171.762L197.043 171.957L200.079 167.717C200.696 168.908 201.234 170.137 201.69 171.398C201.987 172.492 201.122 175.214 201.122 175.214C200.622 176.227 199.879 177.101 198.96 177.758C197.747 178.377 196.263 176.706 196.416 178.75L196.518 180.793L196.204 183.058L198.078 184.041L199.859 184.983L200.893 185.831" stroke="#263238" stroke-linecap="round" stroke-linejoin="round"/>
<path d="M104.501 162.383L105.256 162.536L108.648 158.788L111.709 157.55L113.897 158.703C114.796 159.178 115.703 156.897 115.703 156.897L115.127 156.371C114.542 155.828 115.39 152.691 115.39 152.691C117.074 152.939 118.775 153.056 120.478 153.039C121.817 152.877 122.453 152.928 123.022 151.8C123.59 150.673 123.166 150.427 123.166 150.427C123.653 148.994 123.983 147.513 124.149 146.009C124.149 144.542 126.337 147.162 126.337 147.162L127.406 145.135L129.797 143.236L132.926 141.065C132.926 141.065 137.463 139.759 137.811 140.743C138.158 141.726 139.998 142.523 139.998 142.523L139.218 144.007C139.218 144.007 138.218 147.094 137.251 147.747C136.284 148.4 137.641 153.123 137.641 153.123C136.748 153.97 135.957 154.918 135.284 155.947C134.69 157.083 134.113 157.067 134.113 157.067L131.154 156.659C131.154 156.659 127.762 154.302 126.642 153.708C126.642 153.708 124.65 155.837 124.853 157.1C125.057 158.364 124.149 158.423 124.149 158.423L127.278 161.264L127.787 163.045L129.644 165.547L129.042 166.683L127.906 168.837L128.415 171.186L130.433 173.916L131.578 176.384L132.816 180.378L133.214 182.591L136.861 184.228L138.472 183.38L141.61 181.684L143.094 184.635L143.67 186.119L141.058 188.485L141.991 190.41L142.288 192.589L142.034 195.506L141.499 197.372L143.67 198.525L147.546 197.966L147.402 195.006C148.678 194.245 150.027 193.614 151.43 193.123C153.075 192.657 152.914 192.683 154.94 192.055C156.967 191.427 156.348 191.597 157.323 191.275C158.298 190.953 159.248 190.554 159.248 190.554L159.316 187.484L160.927 181.904L161.919 182.557C162.903 183.219 164.378 180.819 164.378 180.819L165.074 176.579L163.073 175.536C161.907 175.298 160.725 175.156 159.536 175.112L156.746 173.645L154.406 169.515C153.642 168.685 152.989 167.758 152.464 166.759L153.541 164.724L154.864 162.18L156.246 162.909L157.518 163.588L158.866 164.291L161.071 162.867L162.301 159.424L163.997 157.915C165.099 156.914 165.871 158.763 165.871 158.763L167.686 156.481C169.509 154.2 167.999 155.26 167.067 154.09C166.855 153.768 166.565 153.504 166.224 153.323C165.883 153.142 165.502 153.05 165.116 153.055L161.801 149.095L159.163 150.096L158.79 151.343C158.426 152.598 158.79 151.343 154.966 149.842L153.711 146.187L154.465 145.339L154.643 141.947C154.643 141.947 152.447 140.87 150.777 139.971C149.106 139.072 148.724 136.774 148.724 136.774C148.698 135.512 148.956 134.259 149.479 133.111L148.631 130.711L145.502 124.597L146.028 121.841L147.851 120.696L148.572 117.024L145.298 113.92L146.613 111.427L147.546 109.655L148.631 107.586L149.479 103.397C149.479 103.397 149.267 102.616 149.072 101.751" stroke="#263238" stroke-linecap="round" stroke-linejoin="round"/>
<path d="M122.25 194.786C122.184 194.71 122.11 194.642 122.029 194.582L122.971 192.784L122.589 189.392L121.342 188.739C121.342 188.739 122.869 187.23 122.776 186.026C122.759 185.667 122.839 185.309 123.008 184.992C123.176 184.674 123.427 184.407 123.734 184.22L123.327 181.981L122.64 181.616C121.962 181.26 122.377 179.386 122.377 179.386L119.477 179.954L118.688 183.007L115.737 183.762C115.337 183.473 115.003 183.102 114.759 182.673C114.515 182.245 114.365 181.768 114.321 181.277C114.372 179.861 114.915 180.149 114.915 180.149H117.645L119.341 176.927L118.994 175.375L117.772 174.73" stroke="#263238" stroke-linecap="round" stroke-linejoin="round"/>
<path d="M117.696 174.731C117.832 174.807 116.958 170.872 116.958 170.872C116.958 170.872 115.873 167.997 114.686 167.48C113.498 166.963 110.819 168.786 110.819 168.786L107.825 169.21L107.147 172.806" stroke="#263238" stroke-linecap="round" stroke-linejoin="round"/>
<path d="M129.746 197.652L129.034 199.839C127.903 199.15 126.832 198.426 125.82 197.669L129.169 194.361L128.881 190.74C128.881 190.74 128.262 189.401 129.449 189.663C129.943 189.785 130.462 189.758 130.941 189.588C131.42 189.418 131.839 189.111 132.146 188.705C132.841 187.917 132.756 187.577 134.554 188.527C136.352 189.477 136.471 190.113 136.734 190.842C136.996 191.571 133.638 196.719 133.638 196.719L134.826 197.346C134.826 197.346 134.13 198.958 135.309 199.305L129.746 197.652Z" stroke="#263238" stroke-linecap="round" stroke-linejoin="round"/>
<path d="M167.864 170.83L169.95 170.177L171.773 172.017C171.773 172.017 175.377 172.483 173.969 174.052C172.562 175.621 169.873 175.604 169.873 175.604L168.89 177.453L167.194 175.392L166.346 173.696L166.982 172.475L167.864 170.83Z" stroke="#263238" stroke-linecap="round" stroke-linejoin="round"/>
<path d="M170.857 162.96C170.43 163.467 170.118 164.06 169.941 164.699L169.806 165.496L166.414 163.715L168.262 160.213L170.857 162.96Z" stroke="#263238" stroke-linecap="round" stroke-linejoin="round"/>
<path d="M354.882 362.986C350.336 366.768 315.323 390.801 265.358 386.925C262.67 364.182 252.418 270.749 264.078 256.096C264.078 256.096 292.367 242.604 318.426 248.269C344.485 253.934 354.627 259.361 356.484 264.059C357.892 267.612 355.882 333.773 354.882 362.986Z" fill="#263238"/>
<path d="M317.561 258.25C302.552 271.25 283.217 268.502 283.641 258.521C283.709 256.961 285.38 255.027 285.38 255.027L284.794 254.129L282.25 250.287C280.393 247.412 278.07 243.8 276.45 241.171C275.093 238.932 308.92 218.122 308.92 230.088C308.92 246.946 317.197 250.118 317.197 250.118C320.317 251.373 323.226 253.357 317.561 258.25Z" fill="white" stroke="#263238" stroke-linecap="round" stroke-linejoin="round"/>
<path d="M327.05 283.995C327.05 283.995 324.023 294.375 325.456 297.351" stroke="white" stroke-linecap="round" stroke-linejoin="round"/>
<path d="M323.514 253.857C323.514 263.872 293.639 273.683 284.888 263.634" stroke="white" stroke-linecap="round" stroke-linejoin="round"/>
<path d="M298.939 242.299C298.939 242.299 296.938 249.846 287.61 255.74C287.165 254.976 286.447 254.409 285.6 254.154C285.319 254.108 285.033 254.108 284.752 254.154L282.208 250.312C287.033 246.836 298.939 242.299 298.939 242.299Z" fill="#263238"/>
<path d="M303.128 233.021C303.128 233.021 303.027 240.467 301.432 241.985C289.603 253.331 278.036 254.23 276.128 251.237C263.281 231.088 266.317 225.797 265.011 222.345C262.696 216.29 259.855 206.403 261.11 200.416C263.908 187.043 289.094 176.672 302.357 190.121C308.717 196.557 310.726 210.524 309.387 222.159" fill="white"/>
<path d="M303.128 233.022C303.128 233.022 303.027 240.467 301.432 241.985C289.603 253.331 278.036 254.23 276.128 251.237C263.281 231.088 266.317 225.797 265.011 222.345C262.696 216.29 259.855 206.403 261.11 200.416C263.908 187.043 289.094 176.672 302.357 190.121C308.717 196.557 310.726 210.524 309.387 222.159" stroke="#263238" stroke-linecap="round" stroke-linejoin="round"/>
<path d="M266.63 216.121C266.63 216.121 263.094 214.535 262.331 216.426" stroke="#263238" stroke-linecap="round" stroke-linejoin="round"/>
<path d="M275.204 216.24C275.204 216.24 282.556 213.161 285.863 216.901" stroke="#263238" stroke-linecap="round" stroke-linejoin="round"/>
<path d="M283.37 221.455C283.489 222.558 282.954 223.516 282.166 223.609C281.377 223.702 280.648 222.863 280.529 221.76C280.41 220.658 280.945 219.691 281.733 219.607C282.522 219.522 283.217 220.353 283.37 221.455Z" fill="#263238"/>
<path d="M268.954 221.786C269.081 222.888 268.538 223.855 267.75 223.94C266.961 224.024 266.232 223.202 266.113 222.099C265.994 220.997 266.529 220.03 267.317 219.945C268.106 219.861 268.818 220.683 268.954 221.786Z" fill="#263238"/>
<path d="M269.31 218.886C270.336 220.539 269.776 223.363 268.42 227.239C267.063 231.114 268.258 232.513 273.465 232.903" fill="white"/>
<path d="M269.31 218.886C270.336 220.539 269.776 223.363 268.42 227.239C267.063 231.114 268.258 232.513 273.465 232.903" stroke="#263238" stroke-linecap="round" stroke-linejoin="round"/>
<path d="M273.465 239.611C273.465 239.611 280.249 238.992 283.353 237.287" stroke="#263238" stroke-linecap="round" stroke-linejoin="round"/>
<path d="M316.442 201.162C316.442 196.125 311.473 185.788 302.755 184.626C297.744 179.386 290.603 177.461 281.937 179.454C261.907 184.05 255.81 203.825 254.937 207.098C254.852 207.404 254.809 207.573 254.809 207.573L260.169 206.216L257.862 210.719L260.669 212.576L260.025 213.289L263.281 216.426L262.263 210.694C262.891 206.997 267.148 201.824 267.148 201.824C265.594 203.837 264.626 206.241 264.349 208.769C266.045 204.368 276.221 200.289 276.221 200.289C272.923 202.969 271.133 208.209 271.133 208.209C274.271 204.342 281.623 201.841 286.329 200.509C287.915 204.334 290.434 208.328 294.029 210.541C297.421 212.627 297.303 216.935 297.303 216.935C300.952 219.472 303.641 223.164 304.935 227.416L309.039 233.03C309.039 233.03 316.442 223.948 316.442 201.162Z" fill="#263238"/>
<path d="M299.168 218.377C297.794 215.434 302.781 207.463 306.317 208.447C308.301 209.006 310.896 212.627 311.405 216.426C311.914 220.226 309.225 227.45 306.359 229.019C304.536 230.037 303.035 227.264 303.035 227.264" fill="white"/>
<path d="M299.168 218.377C297.794 215.434 302.781 207.463 306.317 208.447C308.301 209.006 310.896 212.627 311.405 216.426C311.914 220.226 309.225 227.45 306.359 229.019C304.536 230.037 303.035 227.264 303.035 227.264" stroke="#263238" stroke-linecap="round" stroke-linejoin="round"/>
<path d="M82.8264 362.308L178.642 339.904L378.499 362.986L327.042 398.178L82.8264 362.308Z" fill="white"/>
<path d="M82.8264 362.308L178.642 339.904L378.499 362.986" fill="white"/>
<path d="M82.8264 362.308L178.642 339.904L378.499 362.986" stroke="#263238" stroke-linecap="round" stroke-linejoin="round"/>
<path d="M165.744 366.802L204.531 349.656L253.571 352.191L231.761 370.839L165.744 366.802Z" fill="white" stroke="#263238" stroke-linecap="round" stroke-linejoin="round"/>
<path d="M265.969 255.248C253.529 260.336 250.849 271.775 229.708 316.982C229.708 316.982 220.321 318.907 215.292 330.313C210.264 341.718 218.684 350.724 228.377 350.419C228.377 350.419 232.269 353.811 240.249 353.463C248.229 353.115 283.497 299.149 283.497 299.149L265.969 255.248Z" fill="#263238"/>
<path d="M233.414 319.636C238.977 324.589 242.174 331.856 240.478 339.912" stroke="white" stroke-linecap="round" stroke-linejoin="round"/>
<path d="M238.782 322.02C238.782 322.02 245.617 323.512 246.677 332.263" stroke="white" stroke-linecap="round" stroke-linejoin="round"/>
<path d="M258.778 296.41C255.549 288.442 254.433 279.775 255.539 271.25" stroke="white" stroke-linecap="round" stroke-linejoin="round"/>
<path d="M257.811 284.877C257.294 288.439 260.974 307.4 260.949 327.336" stroke="white" stroke-linecap="round" stroke-linejoin="round"/>
<path d="M350.803 258.996C366.364 266.815 368.212 290.872 353.533 319.637C343.162 339.938 328.848 369.914 319.792 371.924C310.735 373.934 301.899 368.295 301.899 368.295C301.899 368.295 294.267 367.939 291.96 362.511C285.651 347.68 301.687 328.939 307.962 333.425C307.962 333.425 328.11 289.609 331.782 286.844" fill="#263238"/>
<path d="M290.518 353.497C288.458 343.261 304.57 331.186 307.962 333.425C307.962 333.425 319.927 334.095 321.716 342.371" stroke="white" stroke-linecap="round" stroke-linejoin="round"/>
<path d="M334.352 355.676C341.356 343.321 353.533 319.636 353.533 319.636" stroke="white" stroke-linecap="round" stroke-linejoin="round"/>
<path d="M307.962 333.425C307.962 333.425 316.349 328.405 322.615 333.154" stroke="white" stroke-linecap="round" stroke-linejoin="round"/>
<path d="M310.828 327.328C310.828 327.328 315.458 317.152 320.156 307.824C324.854 298.496 335.607 284.682 340.076 284.012" stroke="white" stroke-linecap="round" stroke-linejoin="round"/>
<path d="M222.45 345.619C221.442 345.57 220.458 345.301 219.566 344.83C205.15 337.309 193.94 324.877 187.19 315.956C184.565 312.546 182.15 308.981 179.956 305.28L183.416 290.457C183.416 290.457 186.672 298.937 199.757 307.272C212.842 315.608 228.386 318.356 233.414 326.776C237.866 334.112 230.022 345.984 222.45 345.619Z" fill="white"/>
<mask id="mask1_126_13597" style="mask-type:luminance" maskUnits="userSpaceOnUse" x="179" y="290" width="56" height="56">
<path d="M222.45 345.619C221.442 345.57 220.458 345.301 219.566 344.83C205.15 337.309 193.94 324.877 187.19 315.956C184.565 312.546 182.15 308.981 179.956 305.28L183.416 290.457C183.416 290.457 186.672 298.937 199.757 307.272C212.842 315.608 228.386 318.356 233.414 326.776C237.866 334.112 230.022 345.984 222.45 345.619Z" fill="white"/>
</mask>
<g mask="url(#mask1_126_13597)">
<path opacity="0.4" d="M222.45 345.619C222.289 344.547 222.004 343.497 221.602 342.49C218.574 334.909 200.257 319.84 200.257 319.84C195.899 319.704 191.108 317.889 187.207 315.956C184.577 312.547 182.155 308.982 179.956 305.28L183.416 290.457C183.416 290.457 186.672 298.937 199.757 307.272C212.842 315.608 228.386 318.356 233.414 326.776C237.866 334.112 230.022 345.984 222.45 345.619Z" fill="#92E3A9"/>
</g>
<path d="M222.45 345.619C221.442 345.57 220.458 345.301 219.566 344.83C205.15 337.309 193.94 324.877 187.19 315.956C184.565 312.546 182.15 308.981 179.956 305.28L183.416 290.457C183.416 290.457 186.672 298.937 199.757 307.272C212.842 315.608 228.386 318.356 233.414 326.776C237.866 334.112 230.022 345.984 222.45 345.619Z" stroke="#263238" stroke-linecap="round" stroke-linejoin="round"/>
<path d="M189.802 304.381C189.802 304.381 188.012 312.284 183.298 310.512C180.754 309.554 175.852 301.956 174.928 298.123L189.802 304.381Z" fill="white" stroke="#263238" stroke-linecap="round" stroke-linejoin="round"/>
<path d="M169.017 255.714L172.867 253.73C172.867 253.73 183.747 253.823 190.497 259.31C196.628 264.296 199.74 272.106 199.74 272.106C199.74 272.106 223.56 258.954 247.89 266.501L257.811 321.799L212.197 324.784L183.73 297.741L169.017 255.714Z" fill="white" stroke="#263238" stroke-linecap="round" stroke-linejoin="round"/>
<path d="M260.949 324.012C260.949 324.012 255.598 323.851 248.441 324.089C237.62 324.428 222.67 325.649 215.835 329.626L215.513 329.516L209.255 327.328L209.127 327.141C207.974 325.445 198.672 312.089 185.383 306.654L166.592 254.146C166.592 254.146 186.096 254.994 196.755 272.615L202.106 274.548C202.106 274.548 233.948 265.119 251.773 268.511L260.949 324.012Z" fill="#92E3A9"/>
<mask id="mask2_126_13597" style="mask-type:luminance" maskUnits="userSpaceOnUse" x="166" y="254" width="95" height="76">
<path d="M260.949 324.012C260.949 324.012 255.598 323.851 248.441 324.089C237.62 324.428 222.67 325.649 215.835 329.626L215.513 329.516L209.255 327.328L209.127 327.141C207.974 325.445 198.672 312.089 185.383 306.654L166.592 254.146C166.592 254.146 186.096 254.994 196.755 272.615L202.106 274.548C202.106 274.548 233.948 265.119 251.773 268.511L260.949 324.012Z" fill="white"/>
</mask>
<g mask="url(#mask2_126_13597)">
<path opacity="0.3" d="M209.127 327.15C207.974 325.454 198.672 312.098 185.383 306.662L166.592 254.154C166.592 254.154 186.096 255.002 196.755 272.624L209.127 327.15Z" fill="black" fill-opacity="0.7"/>
<path opacity="0.3" d="M248.441 324.089C237.62 324.428 222.67 325.649 215.835 329.626L215.513 329.516L203.013 276.448C203.013 276.448 213.24 274.15 216.386 275.312C216.378 275.329 237.171 290.669 248.441 324.089Z" fill="black" fill-opacity="0.7"/>
</g>
<path d="M260.949 324.012C260.949 324.012 255.598 323.851 248.441 324.089C237.62 324.428 222.67 325.649 215.835 329.626L215.513 329.516L209.255 327.328L209.127 327.141C207.974 325.445 198.672 312.089 185.383 306.654L166.592 254.146C166.592 254.146 186.096 254.994 196.755 272.615L202.106 274.548C202.106 274.548 233.948 265.119 251.773 268.511L260.949 324.012Z" stroke="#263238" stroke-linecap="round" stroke-linejoin="round"/>
<path d="M202.123 274.557L214.394 325.462" stroke="#263238" stroke-linecap="round" stroke-linejoin="round"/>
<path d="M209.255 327.336L197.332 276.465" stroke="#263238" stroke-linecap="round" stroke-linejoin="round"/>
<path d="M178.964 305.322C176.242 304.568 170.755 288.21 173.265 281.163C173.265 281.163 176.25 275.982 177.505 275.625C179.405 275.074 187.071 275.235 186.698 276.524C185.85 279.509 179.965 279.458 179.965 279.458L178.057 282.952L178.133 284.877C178.133 284.877 180.906 282.859 181.924 282.918C182.449 282.918 185.163 284.275 187.317 285.411C189.157 286.386 190.285 286.921 189.861 287.803C188.496 290.737 182.687 288.651 182.687 288.651L180.499 291.949C180.499 291.949 182.61 292.314 183.535 292.416C184.459 292.517 192.133 297.631 191.905 298.267C190.997 300.76 183.721 298.063 183.721 298.063L182.432 299.14C182.432 299.14 187.792 300.523 188.368 300.726C189.216 301.04 192.481 303.55 192.43 303.838C192.04 306.043 187.537 304.423 187.537 304.423L183.594 304.262C182.993 304.792 182.271 305.165 181.491 305.348" fill="white"/>
<path d="M178.964 305.322C176.242 304.568 170.755 288.21 173.265 281.163C173.265 281.163 176.25 275.982 177.505 275.625C179.405 275.074 187.071 275.235 186.698 276.524C185.85 279.509 179.965 279.458 179.965 279.458L178.057 282.952L178.133 284.877C178.133 284.877 180.906 282.859 181.924 282.918C182.449 282.918 185.163 284.275 187.317 285.411C189.157 286.386 190.285 286.921 189.861 287.803C188.496 290.737 182.687 288.651 182.687 288.651L180.499 291.949C180.499 291.949 182.61 292.314 183.535 292.416C184.459 292.517 192.133 297.631 191.905 298.267C190.997 300.76 183.721 298.063 183.721 298.063L182.432 299.14C182.432 299.14 187.792 300.523 188.368 300.726C189.216 301.04 192.481 303.55 192.43 303.838C192.04 306.043 187.537 304.423 187.537 304.423L183.594 304.262C182.993 304.792 182.271 305.165 181.491 305.348" stroke="#263238" stroke-linecap="round" stroke-linejoin="round"/>
<path d="M178.099 284.877C178.099 284.877 175.555 287.014 174.902 287.633C174.249 288.252 174.41 290.219 174.41 290.219" stroke="#263238" stroke-linecap="round" stroke-linejoin="round"/>
<path d="M176.259 294.561C176.259 296.715 177.701 298.021 178.362 298.716C179.024 299.412 177.302 301.303 179.21 302.659" stroke="#263238" stroke-linecap="round" stroke-linejoin="round"/>
<path d="M301.865 362.834C296.48 364.301 290.629 354.837 283.489 344.508C278.774 337.724 273.499 330.491 267.436 325.852C266.953 325.488 266.461 325.132 265.969 324.792L269.514 306.984C276.874 310.843 281.437 317.025 289.077 323.376C301.373 333.612 312.27 339.895 315.289 344.424C318.308 348.952 311.091 360.315 301.865 362.834Z" fill="white"/>
<mask id="mask3_126_13597" style="mask-type:luminance" maskUnits="userSpaceOnUse" x="265" y="306" width="51" height="57">
<path d="M301.865 362.834C296.48 364.301 290.629 354.837 283.489 344.508C278.774 337.724 273.499 330.491 267.436 325.852C266.953 325.488 266.461 325.132 265.969 324.792L269.514 306.984C276.874 310.843 281.437 317.025 289.077 323.376C301.373 333.612 312.27 339.895 315.289 344.424C318.308 348.952 311.091 360.315 301.865 362.834Z" fill="white"/>
</mask>
<g mask="url(#mask3_126_13597)">
<path opacity="0.4" d="M283.489 344.5C278.774 337.716 273.499 330.483 267.436 325.844C268.235 325.885 269.034 325.764 269.785 325.488C269.785 325.488 279.367 333.264 283.489 344.5Z" fill="#92E3A9"/>
</g>
<path d="M301.865 362.834C296.48 364.301 290.629 354.837 283.489 344.508C278.774 337.724 273.499 330.491 267.436 325.852C266.953 325.488 266.461 325.132 265.969 324.792L269.514 306.984C276.874 310.843 281.437 317.025 289.077 323.376C301.373 333.612 312.27 339.895 315.289 344.424C318.308 348.952 311.091 360.315 301.865 362.834Z" stroke="#263238" stroke-linecap="round" stroke-linejoin="round"/>
<path d="M271.498 324.088C271.13 324.747 270.522 325.239 269.802 325.462C269.61 325.537 269.415 325.602 269.217 325.657H269.056C263.366 327.141 250.561 324.055 250.561 324.055C250.561 324.055 242.174 320.069 241.665 319.128C241.311 318.382 240.996 317.618 240.724 316.838L240.495 316.168C240.495 316.168 237.476 314.472 237.103 313.149C236.73 311.826 236.094 311.453 237.951 311.216C239.808 310.978 249.823 311.216 249.823 311.216L238.926 306.772C238.926 306.772 231.71 303.134 231.04 301.854C230.37 300.573 229.53 299.725 233.219 300.234C236.908 300.743 244.964 303.083 244.964 303.083L251.315 304.432L245.006 301.744C245.006 301.744 232.592 300.243 234.941 296.384H241.987C245.98 296.561 249.95 297.065 253.859 297.894C255.912 298.521 269.48 306.95 269.48 306.95" fill="white"/>
<mask id="mask4_126_13597" style="mask-type:luminance" maskUnits="userSpaceOnUse" x="230" y="296" width="42" height="31">
<path d="M271.498 324.088C271.13 324.747 270.522 325.239 269.802 325.462C269.61 325.537 269.415 325.602 269.217 325.657H269.056C263.366 327.141 250.561 324.055 250.561 324.055C250.561 324.055 242.174 320.069 241.665 319.128C241.311 318.382 240.996 317.618 240.724 316.838L240.495 316.168C240.495 316.168 237.476 314.472 237.103 313.149C236.73 311.826 236.094 311.453 237.951 311.216C239.808 310.978 249.823 311.216 249.823 311.216L238.926 306.772C238.926 306.772 231.71 303.134 231.04 301.854C230.37 300.573 229.53 299.725 233.219 300.234C236.908 300.743 244.964 303.083 244.964 303.083L251.315 304.432L245.006 301.744C245.006 301.744 232.592 300.243 234.941 296.384H241.987C245.98 296.561 249.95 297.065 253.859 297.894C255.912 298.521 269.48 306.95 269.48 306.95" fill="white"/>
</mask>
<g mask="url(#mask4_126_13597)">
<path opacity="0.4" d="M269.039 325.691C263.349 327.175 250.544 324.089 250.544 324.089C250.544 324.089 242.157 320.103 241.648 319.162C241.294 318.416 240.98 317.652 240.707 316.872L251.002 318C250.642 318.648 250.453 319.378 250.453 320.12C250.453 320.862 250.642 321.591 251.002 322.24C252.147 324.301 265.189 326.387 269.039 325.691Z" fill="#92E3A9"/>
</g>
<path d="M271.498 324.088C271.13 324.747 270.522 325.239 269.802 325.462C269.61 325.537 269.415 325.602 269.217 325.657H269.056C263.366 327.141 250.561 324.055 250.561 324.055C250.561 324.055 242.174 320.069 241.665 319.128C241.311 318.382 240.996 317.618 240.724 316.838L240.495 316.168C240.495 316.168 237.476 314.472 237.103 313.149C236.73 311.826 236.094 311.453 237.951 311.216C239.808 310.978 249.823 311.216 249.823 311.216L238.926 306.772C238.926 306.772 231.71 303.134 231.04 301.854C230.37 300.573 229.53 299.725 233.219 300.234C236.908 300.743 244.964 303.083 244.964 303.083L251.315 304.432L245.006 301.744C245.006 301.744 232.592 300.243 234.941 296.384H241.987C245.98 296.561 249.95 297.065 253.859 297.894C255.912 298.521 269.48 306.95 269.48 306.95" stroke="#263238" stroke-linecap="round" stroke-linejoin="round"/>
<path d="M240.478 316.202L252.867 318.025" stroke="#263238" stroke-linecap="round" stroke-linejoin="round"/>
<path d="M116.975 354.141L148.029 363.469L204.845 350.503C204.845 350.503 170.145 340.65 169.823 340.896C169.5 341.142 116.975 354.141 116.975 354.141Z" fill="#92E3A9"/>
<mask id="mask5_126_13597" style="mask-type:luminance" maskUnits="userSpaceOnUse" x="116" y="340" width="89" height="24">
<path d="M116.975 354.141L148.029 363.469L204.845 350.503C204.845 350.503 170.145 340.65 169.823 340.896C169.5 341.142 116.975 354.141 116.975 354.141Z" fill="white"/>
</mask>
<g mask="url(#mask5_126_13597)">
<path opacity="0.3" d="M116.975 354.141L148.029 363.469L204.845 350.503C204.845 350.503 170.145 340.65 169.823 340.896C169.5 341.142 116.975 354.141 116.975 354.141Z" fill="black" fill-opacity="0.7"/>
</g>
<path d="M116.975 354.141L148.029 363.469L204.845 350.503C204.845 350.503 170.145 340.65 169.823 340.896C169.5 341.142 116.975 354.141 116.975 354.141Z" stroke="#263238" stroke-linecap="round" stroke-linejoin="round"/>
<path d="M117.425 343.202C115.245 343.355 114.703 351.207 116.975 354.141L167.143 343.728L171.163 334.213L117.425 343.202Z" fill="#92E3A9"/>
<mask id="mask6_126_13597" style="mask-type:luminance" maskUnits="userSpaceOnUse" x="115" y="334" width="57" height="21">
<path d="M117.425 343.202C115.245 343.355 114.703 351.207 116.975 354.141L167.143 343.728L171.163 334.213L117.425 343.202Z" fill="white"/>
</mask>
<g mask="url(#mask6_126_13597)">
<path opacity="0.3" d="M117.425 343.202C115.245 343.355 114.703 351.207 116.975 354.141L167.143 343.728L171.163 334.213L117.425 343.202Z" fill="black" fill-opacity="0.7"/>
</g>
<path d="M117.425 343.202C115.245 343.355 114.703 351.207 116.975 354.141L167.143 343.728L171.163 334.213L117.425 343.202Z" stroke="#263238" stroke-linecap="round" stroke-linejoin="round"/>
<path d="M202.411 343.092C202.411 343.092 201.665 347.222 202.148 349.766L147.97 362.028L119.409 353.616C119.409 353.616 116.441 348.367 119.028 344.288L171.213 335.426L202.411 343.092Z" fill="white" stroke="#263238" stroke-linecap="round" stroke-linejoin="round"/>
<path d="M117.425 343.202L171.163 334.213L204.531 342.668L148.411 353.853L117.425 343.202Z" fill="#92E3A9" stroke="#263238" stroke-linecap="round" stroke-linejoin="round"/>
<path d="M119.333 348.223L147.749 356.686L194.262 347.324" stroke="#263238" stroke-linecap="round" stroke-linejoin="round"/>
<path d="M201.996 348.188L151.981 358.856" stroke="#263238" stroke-linecap="round" stroke-linejoin="round"/>
<path d="M120.003 351.555C120.435 351.598 141.423 358.059 141.423 358.059" stroke="#263238" stroke-linecap="round" stroke-linejoin="round"/>
<path d="M197.908 346.23L201.886 345.585" stroke="#263238" stroke-linecap="round" stroke-linejoin="round"/>
<path d="M146.825 359.628L144.713 359.153" stroke="#263238" stroke-linecap="round" stroke-linejoin="round"/>
<path d="M119.028 344.288C120.14 345.569 120.783 347.19 120.852 348.885C120.922 350.58 120.413 352.248 119.409 353.616C118.48 352.252 117.952 350.655 117.884 349.006C117.817 347.357 118.213 345.723 119.028 344.288Z" fill="#263238"/>
<mask id="mask7_126_13597" style="mask-type:luminance" maskUnits="userSpaceOnUse" x="117" y="344" width="4" height="10">
<path d="M119.028 344.288C120.14 345.569 120.783 347.19 120.852 348.885C120.922 350.58 120.413 352.248 119.409 353.616C118.48 352.252 117.952 350.655 117.884 349.006C117.817 347.357 118.213 345.723 119.028 344.288Z" fill="white"/>
</mask>
<g mask="url(#mask7_126_13597)">
<path opacity="0.3" d="M119.028 344.288C120.14 345.569 120.783 347.19 120.852 348.885C120.922 350.58 120.413 352.248 119.409 353.616C118.48 352.252 117.952 350.655 117.884 349.006C117.817 347.357 118.213 345.723 119.028 344.288Z" fill="white" fill-opacity="0.7"/>
</g>
<path d="M119.028 344.288C120.14 345.569 120.783 347.19 120.852 348.885C120.922 350.58 120.413 352.248 119.409 353.616C118.48 352.252 117.952 350.655 117.884 349.006C117.817 347.357 118.213 345.723 119.028 344.288Z" stroke="#263238" stroke-linecap="round" stroke-linejoin="round"/>
<path d="M235.093 356.686L289.323 358.907L284.04 377.572L217.328 375.028L235.093 356.686Z" fill="white"/>
<mask id="mask8_126_13597" style="mask-type:luminance" maskUnits="userSpaceOnUse" x="217" y="356" width="73" height="22">
<path d="M235.093 356.686L289.323 358.907L284.04 377.572L217.328 375.028L235.093 356.686Z" fill="white"/>
</mask>
<g mask="url(#mask8_126_13597)">
<path opacity="0.4" d="M235.093 356.686L289.323 358.907L284.04 377.572L217.328 375.028L235.093 356.686Z" fill="#92E3A9"/>
</g>
<path d="M235.093 356.686L289.323 358.907L284.04 377.572L217.328 375.028L235.093 356.686Z" stroke="#263238" stroke-linecap="round" stroke-linejoin="round"/>
</svg>
